<?xml version="1.0" encoding="UTF-8"?>
<svg version="1.1" xmlns="http://www.w3.org/2000/svg" width="229" height="264">
<path d="M0 0 C1.20720703 -0.01611328 2.41441406 -0.03222656 3.65820312 -0.04882812 C18.68919074 -0.05695738 31.12428097 4.48683608 43.1875 13.3125 C43.80625 13.76367188 44.425 14.21484375 45.0625 14.6796875 C53.9841274 21.72936629 59.65136753 31.88785974 61.9375 42.9375 C62.02 43.72125 62.1025 44.505 62.1875 45.3125 C63.79625 45.250625 63.79625 45.250625 65.4375 45.1875 C80.90010719 45.2691687 95.97897064 50.99060269 107.5 61.40234375 C109.1875 63.3125 109.1875 63.3125 109.1875 65.3125 C109.8475 65.3125 110.5075 65.3125 111.1875 65.3125 C123.53558848 81.0365437 124.6056213 99.12537809 124.1875 118.3125 C116.51068001 118.8616789 110.49216579 115.28319173 104.1875 111.3125 C98.77338859 106.4625481 96.32338419 100.75379793 94.078125 93.9609375 C91.92444866 87.55658418 89.75385675 83.33264654 84.1875 79.3125 C84.1875 78.6525 84.1875 77.9925 84.1875 77.3125 C83.28 77.02375 82.3725 76.735 81.4375 76.4375 C78.1875 75.3125 78.1875 75.3125 76.3125 74.25 C66.45353555 69.90045686 51.71948365 71.79762626 41.859375 75.08984375 C36.70410851 77.38216645 33.51547229 80.82477979 30.1875 85.3125 C31.26 85.84875 32.3325 86.385 33.4375 86.9375 C34.15808594 87.2984375 34.87867187 87.659375 35.62109375 88.03125 C37.50709138 88.97281351 39.39546256 89.90962651 41.28515625 90.84375 C42.34605469 91.3696875 43.40695313 91.895625 44.5 92.4375 C45.50675781 92.93507813 46.51351562 93.43265625 47.55078125 93.9453125 C50.1875 95.3125 50.1875 95.3125 53.1875 97.3125 C53.1875 97.9725 53.1875 98.6325 53.1875 99.3125 C53.8475 99.3125 54.5075 99.3125 55.1875 99.3125 C58.97890516 104.20021508 62.11515631 109.30990489 63.6875 115.3125 C64.71411453 118.71240577 64.87996903 119.11862178 68.0625 121.125 C69.42632242 121.55777872 70.8038623 121.94800619 72.1875 122.3125 C74.16794404 122.91246622 76.14696794 123.51712893 78.125 124.125 C79.23746094 124.45886719 80.34992188 124.79273438 81.49609375 125.13671875 C89.85913053 127.80050084 98.05148635 131.02680218 106.1875 134.3125 C106.1875 134.9725 106.1875 135.6325 106.1875 136.3125 C107.1775 136.3125 108.1675 136.3125 109.1875 136.3125 C109.1875 136.9725 109.1875 137.6325 109.1875 138.3125 C109.78433594 138.56515625 110.38117188 138.8178125 110.99609375 139.078125 C116.84286642 142.37149428 121.02012984 150.2303754 122.80859375 156.484375 C125.95673914 170.11910123 124.34619292 183.64745379 117.68359375 196.00390625 C109.96957513 207.90726136 96.92625019 214.51178274 83.56640625 217.99609375 C69.62394514 220.86369213 53.73442678 220.73287554 40.1875 216.3125 C39.32253906 216.0340625 38.45757812 215.755625 37.56640625 215.46875 C22.62156337 210.0596961 12.454042 200.29017952 5.1875 186.3125 C4.92710938 185.41273438 4.66671875 184.51296875 4.3984375 183.5859375 C3.37793963 181.02449016 3.37793963 181.02449016 0.5 180.4921875 C-0.593125 180.39164063 -1.68625 180.29109375 -2.8125 180.1875 C-17.69102938 178.40142103 -31.7079959 172.35731165 -41.30859375 160.40234375 C-53.05132836 144.08451774 -56.56817716 125.12803443 -55.8125 105.3125 C-52.55579253 103.68414626 -49.83492924 105.23324591 -46.48828125 106.2890625 C-41.32272083 108.2647951 -36.47109228 111.1056783 -32.8125 115.3125 C-32.8125 115.9725 -32.8125 116.6325 -32.8125 117.3125 C-32.1525 117.3125 -31.4925 117.3125 -30.8125 117.3125 C-28.33065562 121.92163956 -26.45245235 126.29660734 -24.9375 131.3125 C-22.04424913 140.29859682 -17.06085855 146.36029831 -8.8125 151 C-5.56907552 152.5460986 -5.56907552 152.5460986 -0.8125 153.3125 C-0.8125 137.1425 -0.8125 120.9725 -0.8125 104.3125 C-4.81375 102.9925 -8.815 101.6725 -12.9375 100.3125 C-29.15238595 94.77335326 -43.18377383 89.1436444 -51.6875 73.3125 C-57.15340607 61.25806068 -57.86768225 46.4565145 -53.80078125 33.8125 C-51.49219762 27.97260464 -48.92840601 22.1180392 -44.8125 17.3125 C-44.1525 17.3125 -43.4925 17.3125 -42.8125 17.3125 C-42.57660156 16.7246875 -42.34070312 16.136875 -42.09765625 15.53125 C-37.63130622 7.82034782 -26.52487674 3.8131194 -18.40234375 1.2265625 C-12.35247669 -0.23105889 -6.18711009 -0.01635936 0 0 Z M-23.23046875 34.93359375 C-26.90528831 40.25345889 -27.05062252 44.92191783 -27.125 51.125 C-27.15400391 51.91970703 -27.18300781 52.71441406 -27.21289062 53.53320312 C-27.27120466 58.95640806 -26.48198231 62.05894784 -22.8125 66.3125 C-16.60013475 71.35790161 -5.69973505 77.53814316 2.4296875 77.2265625 C4.95856936 75.91154394 5.36947411 74.36028715 6.4375 71.75 C11.97959132 59.88619594 22.55736365 54.13146853 34.1875 49.3125 C33.84669965 42.49649296 30.14745542 38.07968521 25.328125 33.57421875 C11.86424173 22.72232883 -11.12965317 21.099328 -23.23046875 34.93359375 Z M29.1875 114.3125 C29.1875 125.5325 29.1875 136.7525 29.1875 148.3125 C34.66478925 144.17320679 34.66478925 144.17320679 36.47802734 138.20947266 C36.52733478 135.7849253 36.55880322 133.36258548 36.5625 130.9375 C36.58699219 130.09960938 36.61148438 129.26171875 36.63671875 128.3984375 C36.66264337 122.90241821 35.96037356 119.60295188 32.1875 115.3125 C31.1975 114.9825 30.2075 114.6525 29.1875 114.3125 Z M63.1875 146.3125 C62.85991699 146.98506836 62.53233398 147.65763672 62.19482422 148.35058594 C61.7567041 149.24036133 61.31858398 150.13013672 60.8671875 151.046875 C60.43647949 151.92569336 60.00577148 152.80451172 59.56201172 153.70996094 C53.47935337 165.22703695 44.33990733 171.12282237 33.1875 177.3125 C34.50645746 181.37405154 35.97514846 183.37444496 39.375 185.9375 C40.11105469 186.50726563 40.84710938 187.07703125 41.60546875 187.6640625 C51.84923157 194.20395344 64.74691398 194.48659919 76.43359375 192.1015625 C84.04145153 189.9217224 89.67329999 186.86537098 94.1875 180.3125 C95.64250399 177.40249203 95.39647384 174.8035667 95.4375 171.5625 C95.47617188 169.74492187 95.47617188 169.74492187 95.515625 167.890625 C95.05367464 162.85316636 93.70214022 159.68422487 89.93383789 156.27148438 C87.1084419 154.25610724 84.74162458 153.2282619 81.44921875 152.171875 C80.38251953 151.82382813 79.31582031 151.47578125 78.21679688 151.1171875 C77.11400391 150.76914063 76.01121094 150.42109375 74.875 150.0625 C73.75287109 149.69898438 72.63074219 149.33546875 71.47460938 148.9609375 C68.71516947 148.06852289 65.95294264 147.18609885 63.1875 146.3125 Z " fill="#02A5B7" transform="translate(79.8125,16.6875)"/>
<path d="M0 0 C7.81929982 0.73305936 14.6457187 4.13658914 20.5625 9.1875 C22 11 22 11 22 13 C22.66 13 23.32 13 24 13 C26.48184438 17.60913956 28.36004765 21.98410734 29.875 27 C32.76825087 35.98609682 37.75164145 42.04779831 46 46.6875 C49.24342448 48.2335986 49.24342448 48.2335986 54 49 C54.33 32.83 54.66 16.66 55 0 C60.18595236 0 61.69526533 0.16008173 66.0078125 2.2109375 C68.36046726 3.14277331 70.63405105 3.56389914 73.125 4 C77.38227788 4.77110513 80.85710963 5.85710963 84 9 C84.08327339 10.78969367 84.09633901 12.58269672 84.08178711 14.37426758 C84.0752562 15.52248489 84.06872528 16.67070221 84.06199646 17.85371399 C84.05056107 19.10468369 84.03912567 20.35565338 84.02734375 21.64453125 C84.01469521 24.26627471 84.00233442 26.88801957 83.99023438 29.50976562 C83.96649039 33.66418697 83.93788753 37.81854928 83.90405273 41.97290039 C83.88244034 44.67534876 83.86617788 47.37773199 83.85560608 50.08024597 C83.84523911 52.63002805 83.82662346 55.17979227 83.79905701 57.72944641 C83.79567825 58.88712021 83.7922995 60.04479401 83.78881836 61.23754883 C83.78136093 62.25601395 83.7739035 63.27447906 83.76622009 64.32380676 C84.00701945 67.08035511 84.49475 68.69521957 86 71 C86.66 71.33 87.32 71.66 88 72 C88.37125 72.886875 88.7425 73.77375 89.125 74.6875 C92.82842473 81.23021703 99.09288573 84.44342353 106 87 C119.16675341 89.03722353 132.58382474 88.55323505 144 81 C148.40568014 76.37940863 149.17014098 73.55886271 149.25 67.25 C149.27578125 66.03828125 149.3015625 64.8265625 149.328125 63.578125 C148.90564947 58.97112997 147.77994853 55.55258016 144.22827148 52.45458984 C141.74472527 50.83335961 139.42473965 49.93232409 136.61328125 48.9921875 C135.0828418 48.47205078 135.0828418 48.47205078 133.52148438 47.94140625 C132.46251953 47.58949219 131.40355469 47.23757812 130.3125 46.875 C128.20359644 46.16653029 126.09547687 45.45572108 123.98828125 44.7421875 C123.05540283 44.4313623 122.12252441 44.12053711 121.16137695 43.80029297 C119 43 119 43 118 42 C117.9832207 39.99836123 118.03737459 37.99605136 118.12109375 35.99609375 C118.16943359 34.78115234 118.21777344 33.56621094 118.26757812 32.31445312 C118.32365234 31.03505859 118.37972656 29.75566406 118.4375 28.4375 C118.48970703 27.15423828 118.54191406 25.87097656 118.59570312 24.54882812 C118.7258696 21.36566609 118.86085001 18.18277996 119 15 C127.52304102 17.80981766 136.02393028 20.67628943 144.5 23.625 C145.33563477 23.91383057 146.17126953 24.20266113 147.03222656 24.50024414 C151.77889391 26.158724 156.40347324 27.96121797 161 30 C161 30.66 161 31.32 161 32 C161.99 32 162.98 32 164 32 C164 32.66 164 33.32 164 34 C164.59683594 34.25265625 165.19367188 34.5053125 165.80859375 34.765625 C171.65536642 38.05899428 175.83262984 45.9178754 177.62109375 52.171875 C180.76923914 65.80660123 179.15869292 79.33495379 172.49609375 91.69140625 C164.78207513 103.59476136 151.73875019 110.19928274 138.37890625 113.68359375 C124.43644514 116.55119213 108.54692678 116.42037554 95 112 C94.13503906 111.7215625 93.27007812 111.443125 92.37890625 111.15625 C77.43406337 105.7471961 67.266542 95.97767952 60 82 C59.73960938 81.10023438 59.47921875 80.20046875 59.2109375 79.2734375 C58.19043963 76.71199016 58.19043963 76.71199016 55.3125 76.1796875 C54.219375 76.07914062 53.12625 75.97859375 52 75.875 C37.12147062 74.08892103 23.1045041 68.04481165 13.50390625 56.08984375 C2.21429665 40.40168495 -2.67223486 20.32792382 -1 1 C-0.67 0.67 -0.34 0.34 0 0 Z " fill="#FA793A" transform="translate(25,121)"/>
<path d="M0 0 C2.3125 2.08984375 2.3125 2.08984375 4 4 C4 4.66 4 5.32 4 6 C4.66 6 5.32 6 6 6 C18.34808848 21.7240437 19.4181213 39.81287809 19 59 C11.32318001 59.5491789 5.30466579 55.97069173 -1 52 C-6.41411141 47.1500481 -8.86411581 41.44129793 -11.109375 34.6484375 C-13.26305134 28.24408418 -15.43364325 24.02014654 -21 20 C-21 19.34 -21 18.68 -21 18 C-21.9075 17.71125 -22.815 17.4225 -23.75 17.125 C-27 16 -27 16 -28.875 14.9375 C-38.76093026 10.57606018 -53.38517882 12.53523676 -63.29296875 15.7421875 C-67.45264489 17.56053722 -69.7549409 19.75335982 -72.5625 23.3125 C-74.2890625 25.4140625 -74.2890625 25.4140625 -76 27 C-80.7095545 27.25688479 -84.63095705 25.48691215 -88.9453125 23.7578125 C-91.05105994 22.98116801 -93.12681822 22.4418881 -95.3125 21.9375 C-99 21 -99 21 -102 19 C-99.99044077 10.69382184 -96.02274493 5.94942456 -90 0 C-89.0925 -0.9075 -88.185 -1.815 -87.25 -2.75 C-76.96231332 -9.87224463 -67.15143837 -12.03837538 -55 -13 C-53.96230469 -13.10957031 -52.92460937 -13.21914063 -51.85546875 -13.33203125 C-32.46626741 -15.36586356 -15.9462123 -11.72361332 0 0 Z " fill="#FDD73E" transform="translate(185,76)"/>
<path d="M0 0 C1.79727539 -0.01740234 1.79727539 -0.01740234 3.63085938 -0.03515625 C18.60212177 0.01379611 31.04841321 4.58528209 43.0625 13.375 C43.68125 13.82617188 44.3 14.27734375 44.9375 14.7421875 C53.90268782 21.8262868 59.36139916 31.91632709 61.875 42.9375 C61.936875 43.741875 61.99875 44.54625 62.0625 45.375 C59.99638097 47.44111903 55.91493324 47.06609387 53.0625 47.375 C52.29172119 47.46185059 51.52094238 47.54870117 50.72680664 47.63818359 C48.5057839 47.88769463 46.28422066 48.13179544 44.0625 48.375 C43.02996094 48.49101563 41.99742188 48.60703125 40.93359375 48.7265625 C38.97697458 48.94640735 37.01981886 49.16147431 35.0625 49.375 C34.7221875 48.66214844 34.381875 47.94929688 34.03125 47.21484375 C29.6713893 38.59948071 24.36527308 31.84073899 15.0625 28.375 C6.66998894 26.3318309 -1.14871686 25.78394557 -9.6875 27.15625 C-11.9375 27.375 -11.9375 27.375 -15.671875 27.3359375 C-20.62912876 27.30148022 -25.40590925 28.05018886 -30.2890625 28.83984375 C-34.13255301 29.3920694 -36.67085294 29.64818223 -39.9375 27.375 C-39.6075 28.365 -39.2775 29.355 -38.9375 30.375 C-42.6053852 32.33689209 -45.80998551 33.76801257 -49.9375 34.375 C-49.27227732 27.39016187 -45.94263893 23.06731774 -40.9375 18.375 C-39.885625 17.26125 -39.885625 17.26125 -38.8125 16.125 C-36.9375 14.375 -36.9375 14.375 -34.9375 14.375 C-33.79527906 12.87117605 -33.79527906 12.87117605 -32.6875 11 C-30.26962114 7.42731333 -28.24082634 6.27569621 -23.9375 5.375 C-23.9375 4.715 -23.9375 4.055 -23.9375 3.375 C-15.91713038 0.33664913 -8.51973197 -0.08222798 0 0 Z " fill="#03E5BC" transform="translate(79.9375,16.625)"/>
<path d="M0 0 C7.81929982 0.73305936 14.6457187 4.13658914 20.5625 9.1875 C22 11 22 11 22 13 C22.66 13 23.32 13 24 13 C26.48184438 17.60913956 28.36004765 21.98410734 29.875 27 C32.74774825 35.92241809 37.69824262 42.06711294 45.9375 46.625 C48.99047183 48.07450889 48.99047183 48.07450889 52.3125 49 C53.199375 49.33 54.08625 49.66 55 50 C56.18202323 53.5460697 56.60784681 57.05888963 57.0625 60.75 C57.15337891 61.4409375 57.24425781 62.131875 57.33789062 62.84375 C57.89064517 67.26578638 58.08748696 71.54399734 58 76 C43.67973946 77.1637232 30.91245399 71.24670312 19.8359375 62.578125 C4.90337162 49.74247263 0.52740695 30.79290578 -1 12 C-1.16352074 8.32707262 -1.31726254 4.66696465 -1 1 C-0.67 0.67 -0.34 0.34 0 0 Z " fill="#144DB4" transform="translate(25,121)"/>
<path d="M0 0 C10.35553436 0.94141221 20.6236464 3.7589182 27.67578125 11.9453125 C28.85260856 13.58292571 29.93737033 15.28608117 31 17 C31.33 12.05 31.66 7.1 32 2 C32.33 2 32.66 2 33 2 C33.65660468 37.61322769 33.65660468 37.61322769 20.25390625 51.85546875 C14.86923893 56.9266835 8.69135334 59.95543423 2 63 C-3.46400923 57.71224913 -3.29227295 54.24652451 -3.4375 46.875 C-3.48326172 45.94945312 -3.52902344 45.02390625 -3.57617188 44.0703125 C-3.69357941 36.84209218 -1.73936784 33.31094572 3 28 C4.73560594 24.52878812 4.26939094 20.63771016 4.3125 16.8125 C4.34150391 15.97396484 4.37050781 15.13542969 4.40039062 14.27148438 C4.46088115 8.31084089 3.37709382 4.92243063 0 0 Z " fill="#0174A4" transform="translate(111,131)"/>
<path d="M0 0 C0.33 0.99 0.66 1.98 1 3 C2.11375 3.144375 3.2275 3.28875 4.375 3.4375 C8 4 8 4 10 5 C10 5.66 10 6.32 10 7 C11.11375 6.95875 12.2275 6.9175 13.375 6.875 C17 7 17 7 19 9 C19.33 9.66 19.66 10.32 20 11 C21.65407219 11.39106786 23.32455112 11.71406303 25 12 C26.77666515 12.50057865 28.54777878 13.02131883 30.3125 13.5625 C31.63701172 13.96662109 31.63701172 13.96662109 32.98828125 14.37890625 C33.65214844 14.58386719 34.31601563 14.78882813 35 15 C35 15.66 35 16.32 35 17 C35.99 17 36.98 17 38 17 C38 17.66 38 18.32 38 19 C38.99 19.33 39.98 19.66 41 20 C43.32265612 22.58072903 44 23.45176068 44 27 C44.66 27 45.32 27 46 27 C46 27.66 46 28.32 46 29 C46.99 29.33 47.98 29.66 49 30 C51.87761023 35.60376729 51.17843628 41.87368781 51 48 C49.49440461 46.03617993 48.10868317 44.21736634 47 42 C45.35544725 41.28050817 43.68076231 40.63028587 42 40 C40.53948795 39.33812001 39.08134002 38.67100991 37.625 38 C31.26521105 35.17109882 24.87546269 33.71911151 18.0390625 32.5625 C17.02972656 32.2840625 17.02972656 32.2840625 16 32 C15.67 31.34 15.34 30.68 15 30 C12.88153715 29.31270746 12.88153715 29.31270746 10.4375 28.875 C9.61121094 28.70742187 8.78492188 28.53984375 7.93359375 28.3671875 C7.29550781 28.24601562 6.65742188 28.12484375 6 28 C6.33 26.68 6.66 25.36 7 24 C6.01 24.33 5.02 24.66 4 25 C1.46262681 23.09869857 1.00455164 22.02168088 0.33984375 18.85546875 C0.20707031 17.64503906 0.07429687 16.43460938 -0.0625 15.1875 C-0.58546929 10.54054432 -1.22551246 6.34846948 -3 2 C-3.66 1.67 -4.32 1.34 -5 1 C-3.35 0.67 -1.7 0.34 0 0 Z " fill="#FDAB3D" transform="translate(150,138)"/>
<path d="M0 0 C4.00989451 0.61412799 8.00515662 1.29476508 12 2 C13.65322266 2.27457031 13.65322266 2.27457031 15.33984375 2.5546875 C23.07087959 4.04390011 29.18110013 6.54888613 35 12 C35 12.66 35 13.32 35 14 C35.92039062 14.38478516 35.92039062 14.38478516 36.859375 14.77734375 C40.49373026 16.85317075 41.72520645 20.12277817 43 24 C43.5450597 28.562075 43.14337824 32.57521916 42 37 C42 37.66 42 38.32 42 39 C38.08981625 41.60678917 35.95448473 41.10866423 31.43359375 40.53125 C26.08390603 39.3634209 23.18620305 35.48404881 20.1875 31.1171875 C18.33181951 27.80870453 17.1899813 24.29772555 15.9609375 20.71875 C13.69527358 14.30857892 11.61566865 10.0557607 6 6 C6 5.34 6 4.68 6 4 C4.02 3.34 2.04 2.68 0 2 C0 1.34 0 0.68 0 0 Z " fill="#F9BB3C" transform="translate(158,90)"/>
<path d="M0 0 C1.98 0.66 3.96 1.32 6 2 C5.01 2.66 4.02 3.32 3 4 C3.48082031 4.83789062 3.96164063 5.67578125 4.45703125 6.5390625 C6.15488654 10.34741638 6.49189932 13.22826558 6.6875 17.375 C6.78611328 19.24285156 6.78611328 19.24285156 6.88671875 21.1484375 C6.92410156 22.08945313 6.96148437 23.03046875 7 24 C8.98 24.66 10.96 25.32 13 26 C12.67 27.32 12.34 28.64 12 30 C14.97 30.33 17.94 30.66 21 31 C21.33 31.99 21.66 32.98 22 34 C22.64066406 34.04898438 23.28132813 34.09796875 23.94140625 34.1484375 C32.74831381 34.90969031 40.03744112 37.26483602 48 41 C49.7015625 41.7734375 49.7015625 41.7734375 51.4375 42.5625 C54 44 54 44 56 47 C56.21502018 41.62449542 56.25603962 37.01342137 54 32 C53.34 31.67 52.68 31.34 52 31 C52 30.34 52 29.68 52 29 C51.34 29 50.68 29 50 29 C49.0234375 27.20963542 48.046875 25.41927083 47.0703125 23.62890625 C46.08589976 21.83381685 46.08589976 21.83381685 44 21 C44 20.34 44 19.68 44 19 C43.01 19 42.02 19 41 19 C41 18.34 41 17.68 41 17 C40.3709375 16.90203125 39.741875 16.8040625 39.09375 16.703125 C33.05761911 15.64862021 28.35559155 13.97532864 23 11 C23 10.34 23 9.68 23 9 C20.69 9 18.38 9 16 9 C16 8.34 16 7.68 16 7 C11.545 6.01 11.545 6.01 7 5 C7.33 4.34 7.66 3.68 8 3 C19.58177236 6.37140634 30.81774946 10.48409113 42 15 C42 15.66 42 16.32 42 17 C42.99 17 43.98 17 45 17 C45 17.66 45 18.32 45 19 C45.89525391 19.37898438 45.89525391 19.37898438 46.80859375 19.765625 C52.65536642 23.05899428 56.83262984 30.9178754 58.62109375 37.171875 C61.12538645 48.01805304 60.5976328 58.45464513 57 69 C56.34 69.99 55.68 70.98 55 72 C55.165 71.2575 55.33 70.515 55.5 69.75 C55.94165843 66.43756181 56.16771401 63.27419676 56.25 59.9375 C56.28867188 58.43509766 56.28867188 58.43509766 56.328125 56.90234375 C55.95186274 53.57421451 54.82248714 51.76730284 53 49 C53 48.34 53 47.68 53 47 C49.7553737 45.31933026 46.43846103 43.89636219 43.0625 42.5 C42.04285156 42.0771875 41.02320313 41.654375 39.97265625 41.21875 C38.99167969 40.8165625 38.01070312 40.414375 37 40 C36.10796875 39.61585938 35.2159375 39.23171875 34.296875 38.8359375 C31.96605633 37.82144159 31.96605633 37.82144159 29.1875 38.125 C26.02360793 38.0009258 25.04870187 37.65265812 22.390625 36.19140625 C17.92385367 33.87321496 13.35244361 32.32284258 8.5625 30.8125 C0.11802326 28.11802326 0.11802326 28.11802326 -1 27 C-1.0167793 24.99836123 -0.96262541 22.99605136 -0.87890625 20.99609375 C-0.83056641 19.78115234 -0.78222656 18.56621094 -0.73242188 17.31445312 C-0.67634766 16.03505859 -0.62027344 14.75566406 -0.5625 13.4375 C-0.51029297 12.15423828 -0.45808594 10.87097656 -0.40429688 9.54882812 C-0.2741304 6.36566609 -0.13914999 3.18277996 0 0 Z " fill="#F1AF5E" transform="translate(144,136)"/>
<path d="M0 0 C2.3125 2.08984375 2.3125 2.08984375 4 4 C4 4.66 4 5.32 4 6 C4.66 6 5.32 6 6 6 C18.34808848 21.7240437 19.4181213 39.81287809 19 59 C14.91984892 59.18705564 12.21165672 58.97884509 8.625 57 C7.59246094 56.443125 7.59246094 56.443125 6.5390625 55.875 C6.03117187 55.58625 5.52328125 55.2975 5 55 C7.47447952 53.76276024 9.2553349 54 12 54 C12.99 53.67 13.98 53.34 15 53 C14.814375 52.278125 14.62875 51.55625 14.4375 50.8125 C14 48 14 48 14.5 45.6875 C15.45660851 40.54572924 14.74286049 36.42857787 12.375 31.875 C6.55955561 24.83525153 0.20414285 20.22512121 -8.8125 18.3125 C-10.55466797 17.93544922 -10.55466797 17.93544922 -12.33203125 17.55078125 C-13.21246094 17.36902344 -14.09289062 17.18726562 -15 17 C-15 16.67 -15 16.34 -15 16 C-10.71 16 -6.42 16 -2 16 C-1.505 16.99 -1.505 16.99 -1 18 C1.52733235 18.65555119 1.52733235 18.65555119 4 19 C4 19.66 4 20.32 4 21 C5.65 21.33 7.3 21.66 9 22 C8.649375 21.401875 8.29875 20.80375 7.9375 20.1875 C7 18 7 18 8 15 C7.60602665 12.36195411 7.60602665 12.36195411 7 10 C6.38125 9.9175 5.7625 9.835 5.125 9.75 C2.32494581 8.76174558 2.25886068 7.59640015 1 5 C-1.08983453 3.67643813 -2.67714634 3.04747848 -5.125 2.6875 C-5.74375 2.460625 -6.3625 2.23375 -7 2 C-7.309375 1.175 -7.61875 0.35 -7.9375 -0.5 C-8.288125 -1.325 -8.63875 -2.15 -9 -3 C-11.47608101 -3.74524194 -11.47608101 -3.74524194 -14 -4 C-14.99 -4.99 -14.99 -4.99 -16 -6 C-18.06874034 -6.6425235 -18.06874034 -6.6425235 -20 -7 C-20 -7.66 -20 -8.32 -20 -9 C-27.59 -10.32 -35.18 -11.64 -43 -13 C-43 -12.34 -43 -11.68 -43 -11 C-44.13179687 -10.93941406 -45.26359375 -10.87882812 -46.4296875 -10.81640625 C-47.91147145 -10.73200083 -49.3932416 -10.64735283 -50.875 -10.5625 C-51.99455078 -10.50352539 -51.99455078 -10.50352539 -53.13671875 -10.44335938 C-57.19986864 -10.28426376 -57.19986864 -10.28426376 -61 -9 C-62.87379605 -8.92966231 -64.75001102 -8.9156978 -66.625 -8.9375 C-67.62789062 -8.94652344 -68.63078125 -8.95554687 -69.6640625 -8.96484375 C-70.43492188 -8.97644531 -71.20578125 -8.98804687 -72 -9 C-72 -8.34 -72 -7.68 -72 -7 C-73.76858691 -6.32739649 -75.53996016 -5.66211605 -77.3125 -5 C-78.29863281 -4.62875 -79.28476563 -4.2575 -80.30078125 -3.875 C-83 -3 -83 -3 -86 -3 C-77.0702506 -9.57981535 -67.85230937 -11.67806609 -56.9375 -12.75 C-55.81794922 -12.87503906 -54.69839844 -13.00007813 -53.54492188 -13.12890625 C-33.42588539 -15.27651014 -16.65074966 -12.24158733 0 0 Z " fill="#F9D554" transform="translate(185,76)"/>
<path d="M0 0 C0.33 0 0.66 0 1 0 C1.25394531 1.12019531 1.50789063 2.24039063 1.76953125 3.39453125 C2.11662181 4.86732093 2.46430933 6.33997001 2.8125 7.8125 C2.97814453 8.55048828 3.14378906 9.28847656 3.31445312 10.04882812 C4.4571405 15.27448332 4.4571405 15.27448332 8 19 C8.66 19 9.32 19 10 19 C11 22 11 22 10 25 C11.30135125 26.69175663 12.63755204 28.35704805 14 30 C14.34227417 31.33106622 14.67751743 32.66400079 15 34 C15.99 34.66 16.98 35.32 18 36 C18.45375 36.825 18.9075 37.65 19.375 38.5 C21.28921299 41.44494305 22.69435833 42.01724166 26 43 C26.33 42.34 26.66 41.68 27 41 C27.556875 41.226875 28.11375 41.45375 28.6875 41.6875 C31.92009266 42.12433685 33.34113475 40.74925345 36 39 C36.66 39 37.32 39 38 39 C38 39.66 38 40.32 38 41 C38.66 41 39.32 41 40 41 C38.87548273 43.9719385 37.77706209 46.33440687 36 49 C37.60203467 49.36368892 39.20674203 49.71561952 40.8125 50.0625 C41.70582031 50.25972656 42.59914062 50.45695312 43.51953125 50.66015625 C46.12630779 51.20349463 46.12630779 51.20349463 49 50 C52.88474834 43.66929901 52.2938724 37.23796828 52 30 C51.34 29.67 50.68 29.34 50 29 C51.9375 29.3125 51.9375 29.3125 54 30 C55.18202323 33.5460697 55.60784681 37.05888963 56.0625 40.75 C56.15337891 41.4409375 56.24425781 42.131875 56.33789062 42.84375 C56.89064517 47.26578638 57.08748696 51.54399734 57 56 C42.67973946 57.1637232 29.91245399 51.24670312 18.8359375 42.578125 C8.15335549 33.39565025 1.01482275 19.34605107 -0.23828125 5.3359375 C-0.25 3.125 -0.25 3.125 0 0 Z " fill="#2D43A5" transform="translate(26,141)"/>
<path d="M0 0 C5.18595236 0 6.69526533 0.16008173 11.0078125 2.2109375 C13.36046726 3.14277331 15.63405105 3.56389914 18.125 4 C22.38227788 4.77110513 25.85710963 5.85710963 29 9 C29.07179964 10.51928038 29.08392007 12.04167482 29.0625 13.5625 C29.05347656 14.38878906 29.04445313 15.21507812 29.03515625 16.06640625 C29.02355469 16.70449219 29.01195313 17.34257812 29 18 C28.34 18.33 27.68 18.66 27 19 C26.67 18.34 26.34 17.68 26 17 C18.62742011 14.39791298 9.68374294 14.03953213 2 15 C1.34 15.99 0.68 16.98 0 18 C0 12.06 0 6.12 0 0 Z " fill="#CA442C" transform="translate(80,121)"/>
<path d="M0 0 C4.97631357 0.57908508 9.40555485 1.63735628 14.125 3.3125 C15.30320313 3.72113281 16.48140625 4.12976563 17.6953125 4.55078125 C23.1240186 6.93145496 26.50965175 9.96745626 29.28515625 15.1171875 C30.41541463 18.09415221 30.25548545 20.87030327 30 24 C24.7016129 23.41129032 24.7016129 23.41129032 22.1875 21.9375 C20.26888011 18.80712018 20.29777888 15.63290229 20 12 C19.01 12.33 18.02 12.66 17 13 C14.3125 12.0625 14.3125 12.0625 12 11 C9.59078295 13.40921705 8.46187844 15.94334509 7 19 C6.34 19 5.68 19 5 19 C4.67 20.65 4.34 22.3 4 24 C2.13638835 20.2727767 3.10980242 15.67016846 3.2578125 11.578125 C2.97637219 7.67207461 1.89051459 5.38510989 0 2 C0 1.34 0 0.68 0 0 Z " fill="#AB2226" transform="translate(171,173)"/>
<path d="M0 0 C4.00989451 0.61412799 8.00515662 1.29476508 12 2 C13.65322266 2.27457031 13.65322266 2.27457031 15.33984375 2.5546875 C22.98149167 4.02668151 29.37971402 6.41574149 35 12 C35.765625 14.22265625 35.765625 14.22265625 36 16 C35.01 16.495 35.01 16.495 34 17 C33.34 16.01 32.68 15.02 32 14 C31.33613281 14.20496094 30.67226562 14.40992187 29.98828125 14.62109375 C29.10527344 14.89050781 28.22226563 15.15992187 27.3125 15.4375 C26.44238281 15.70433594 25.57226562 15.97117187 24.67578125 16.24609375 C21.46684988 17.15021602 18.34660996 18 15 18 C14.76925781 17.46890625 14.53851563 16.9378125 14.30078125 16.390625 C12.15191516 11.73616406 10.2357044 9.05911985 6 6 C6 5.34 6 4.68 6 4 C4.02 3.34 2.04 2.68 0 2 C0 1.34 0 0.68 0 0 Z " fill="#CC6935" transform="translate(158,90)"/>
<path d="M0 0 C0.66 0.33 1.32 0.66 2 1 C1.319375 1.9075 0.63875 2.815 -0.0625 3.75 C-2.25950987 6.68865752 -2.25950987 6.68865752 -1.75 9.1875 C-1.5025 9.785625 -1.255 10.38375 -1 11 C-1 11.99 -1 12.98 -1 14 C-0.938125 15.5159375 -0.938125 15.5159375 -0.875 17.0625 C-1 20 -1 20 -3 22 C-0.4580411 22.05434116 2.08273682 22.0938339 4.625 22.125 C5.33785156 22.14175781 6.05070312 22.15851563 6.78515625 22.17578125 C11.2612164 22.21684602 14.77949278 21.69086567 19 20 C18.12202163 21.32451032 17.22177786 22.63427808 16.3125 23.9375 C15.81363281 24.66839844 15.31476563 25.39929688 14.80078125 26.15234375 C12.51879409 28.49373188 11.24615197 28.83576017 8 29 C5.38671875 28.29296875 5.38671875 28.29296875 2.6875 27.1875 C-0.69517128 25.85908253 -3.95539506 24.68088985 -7.5 23.875 C-11 23 -11 23 -14 21 C-11.76898393 11.77846692 -6.57678032 6.57678032 0 0 Z " fill="#FCBF3E" transform="translate(97,74)"/>
<path d="M0 0 C1.98 0.66 3.96 1.32 6 2 C5.01 2.66 4.02 3.32 3 4 C3.48082031 4.83789062 3.96164063 5.67578125 4.45703125 6.5390625 C6.15488654 10.34741638 6.49189932 13.22826558 6.6875 17.375 C6.78611328 19.24285156 6.78611328 19.24285156 6.88671875 21.1484375 C6.92410156 22.08945313 6.96148437 23.03046875 7 24 C8.98 24.66 10.96 25.32 13 26 C12.67 27.32 12.34 28.64 12 30 C14.97 30.33 17.94 30.66 21 31 C21.33 31.99 21.66 32.98 22 34 C23.87387216 34.80212628 23.87387216 34.80212628 26.0625 35.1875 C27.16271484 35.42533203 27.16271484 35.42533203 28.28515625 35.66796875 C28.85105469 35.77753906 29.41695312 35.88710937 30 36 C28.22875977 37.10473633 28.22875977 37.10473633 26 38 C24.19116211 37.43237305 24.19116211 37.43237305 22.33984375 36.32421875 C17.89870739 33.87248082 13.38874567 32.33428917 8.5625 30.8125 C0.11802326 28.11802326 0.11802326 28.11802326 -1 27 C-1.0167793 24.99836123 -0.96262541 22.99605136 -0.87890625 20.99609375 C-0.83056641 19.78115234 -0.78222656 18.56621094 -0.73242188 17.31445312 C-0.67634766 16.03505859 -0.62027344 14.75566406 -0.5625 13.4375 C-0.51029297 12.15423828 -0.45808594 10.87097656 -0.40429688 9.54882812 C-0.2741304 6.36566609 -0.13914999 3.18277996 0 0 Z " fill="#FB913A" transform="translate(144,136)"/>
<path d="M0 0 C-0.00444122 0.60499329 -0.00888245 1.20998657 -0.01345825 1.83331299 C-0.05768847 8.12729532 -0.08786517 14.42123354 -0.10986328 20.71533203 C-0.11992384 23.06463413 -0.13357373 25.41392369 -0.15087891 27.76318359 C-0.17512452 31.13902885 -0.18648259 34.5147086 -0.1953125 37.890625 C-0.20563507 38.94179504 -0.21595764 39.99296509 -0.22659302 41.07598877 C-0.22674408 42.05670349 -0.22689514 43.03741821 -0.22705078 44.04785156 C-0.231492 44.90944885 -0.23593323 45.77104614 -0.24050903 46.65875244 C0.02336872 49.22748402 0.6224 50.82598151 2 53 C2.66 53.33 3.32 53.66 4 54 C4.433125 54.9075 4.86625 55.815 5.3125 56.75 C7.10779762 60.20761023 9.1479189 62.37916872 12 65 C6.00563806 63.18352668 1.42812575 59.14218863 -2 54 C-4.14117125 46.97471915 -4.31446025 39.47341291 -4.6875 32.1875 C-4.76013062 30.8264917 -4.76013062 30.8264917 -4.83422852 29.43798828 C-5.03736396 24.76544183 -4.84921633 20.61558799 -4 16 C-4.00790708 12.635536 -4.12598168 9.28746725 -4.2578125 5.92578125 C-4 3 -4 3 -2.5546875 1.10546875 C-1 0 -1 0 0 0 Z " fill="#F38E53" transform="translate(109,139)"/>
<path d="M0 0 C2.3125 2.08984375 2.3125 2.08984375 4 4 C4 4.66 4 5.32 4 6 C4.66 6 5.32 6 6 6 C6 6.66 6 7.32 6 8 C3 7 3 7 1 4 C-0.89620624 3.39228151 -0.89620624 3.39228151 -3 3.125 C-5.17578125 2.66796875 -5.17578125 2.66796875 -7 2 C-8.1875 -0.5625 -8.1875 -0.5625 -9 -3 C-11.47608101 -3.74524194 -11.47608101 -3.74524194 -14 -4 C-14.99 -4.99 -14.99 -4.99 -16 -6 C-18.06874034 -6.6425235 -18.06874034 -6.6425235 -20 -7 C-20 -7.66 -20 -8.32 -20 -9 C-27.59 -10.32 -35.18 -11.64 -43 -13 C-43 -12.34 -43 -11.68 -43 -11 C-44.13179687 -10.93941406 -45.26359375 -10.87882812 -46.4296875 -10.81640625 C-47.91147145 -10.73200083 -49.3932416 -10.64735283 -50.875 -10.5625 C-51.99455078 -10.50352539 -51.99455078 -10.50352539 -53.13671875 -10.44335938 C-57.19986864 -10.28426376 -57.19986864 -10.28426376 -61 -9 C-62.87379605 -8.92966231 -64.75001102 -8.9156978 -66.625 -8.9375 C-67.62789062 -8.94652344 -68.63078125 -8.95554687 -69.6640625 -8.96484375 C-70.43492188 -8.97644531 -71.20578125 -8.98804687 -72 -9 C-72 -8.34 -72 -7.68 -72 -7 C-73.76858691 -6.32739649 -75.53996016 -5.66211605 -77.3125 -5 C-78.29863281 -4.62875 -79.28476563 -4.2575 -80.30078125 -3.875 C-83 -3 -83 -3 -86 -3 C-77.0702506 -9.57981535 -67.85230937 -11.67806609 -56.9375 -12.75 C-55.81794922 -12.87503906 -54.69839844 -13.00007813 -53.54492188 -13.12890625 C-33.42588539 -15.27651014 -16.65074966 -12.24158733 0 0 Z " fill="#ECD969" transform="translate(185,76)"/>
<path d="M0 0 C7.81929982 0.73305936 14.6457187 4.13658914 20.5625 9.1875 C22 11 22 11 22 13 C19.5625 12.1875 19.5625 12.1875 17 11 C16.67 10.01 16.34 9.02 16 8 C13.03756971 5.98977944 10.5408862 5.53409392 7 6 C6.01 7.485 6.01 7.485 5 9 C5.66 9.33 6.32 9.66 7 10 C6.34 12.64 5.68 15.28 5 18 C5.66 18.33 6.32 18.66 7 19 C7 21.97 7 24.94 7 28 C6.34 28 5.68 28 5 28 C4.54625 26.865625 4.0925 25.73125 3.625 24.5625 C2.42904194 20.95278308 2.42904194 20.95278308 0 20 C-1.15830578 13.74514876 -1.37943637 7.34997933 -1 1 C-0.67 0.67 -0.34 0.34 0 0 Z " fill="#0D57B1" transform="translate(25,121)"/>
<path d="M0 0 C0.66 0.66 1.32 1.32 2 2 C4.58354218 2.16687448 4.58354218 2.16687448 7 2 C7.33 2.99 7.66 3.98 8 5 C8.33 5.66 8.66 6.32 9 7 C9.66 7 10.32 7 11 7 C11 7.66 11 8.32 11 9 C12.19496094 9.07347656 12.19496094 9.07347656 13.4140625 9.1484375 C23.93848858 9.89103691 23.93848858 9.89103691 29 12 C28.67 12.99 28.34 13.98 28 15 C29.32 15 30.64 15 32 15 C32 15.66 32 16.32 32 17 C33.093125 16.896875 34.18625 16.79375 35.3125 16.6875 C41.14575283 16.63513687 45.92054835 19.38557636 51 22 C47.36405831 23.21198056 46.4433009 22.3596245 43.12524414 20.81445312 C40.7397881 19.90027951 38.52216131 19.53003005 35.99609375 19.15625 C29.7270097 18.06735432 23.99183223 16.08404697 18.0625 13.8125 C17.01578125 13.41683838 15.9690625 13.02117676 14.890625 12.61352539 C7.45397016 9.73274775 0.60908613 6.50751269 -6 2 C-3 0 -3 0 0 0 Z " fill="#2285A0" transform="translate(45,102)"/>
<path d="M0 0 C-3 2 -3 2 -6 2 C-6.165 2.9075 -6.33 3.815 -6.5 4.75 C-8.37662767 8.81602661 -10.09203095 9.38846783 -14.125 10.9453125 C-16.49039409 12.27584668 -16.91276509 13.56195809 -18 16 C-19.2065625 17.11375 -19.2065625 17.11375 -20.4375 18.25 C-23.64779416 21.69519373 -24.56618516 24.5476276 -26 29 C-24.9171875 28.5359375 -24.9171875 28.5359375 -23.8125 28.0625 C-21.19692691 27.07439461 -18.74881018 26.4712246 -16 26 C-16.680625 26.53625 -17.36125 27.0725 -18.0625 27.625 C-20.93556223 29.94790138 -23.69794378 32.36356826 -26.44921875 34.828125 C-28 36 -28 36 -30 36 C-29.26744222 26.59635017 -27.2052895 19.30292326 -21 12 C-20.34 12 -19.68 12 -19 12 C-18.77054688 11.41476563 -18.54109375 10.82953125 -18.3046875 10.2265625 C-16.65963287 7.41913394 -14.81526199 6.18713493 -12.125 4.375 C-11.26132812 3.78460937 -10.39765625 3.19421875 -9.5078125 2.5859375 C-3.5483871 -1.1827957 -3.5483871 -1.1827957 0 0 Z " fill="#09B9BB" transform="translate(56,22)"/>
<path d="M0 0 C1.9375 0.3125 1.9375 0.3125 4 1 C5.18202323 4.5460697 5.60784681 8.05888963 6.0625 11.75 C6.15337891 12.4409375 6.24425781 13.131875 6.33789062 13.84375 C6.89064517 18.26578638 7.08748696 22.54399734 7 27 C0.19796625 27.37634203 -4.75690073 26.77471079 -11 24 C-9 22 -9 22 -6.5625 21.9375 C-5.2940625 21.9684375 -5.2940625 21.9684375 -4 22 C-0.76550289 21.27916323 -0.76550289 21.27916323 0.6875 18.25 C2.88968555 12.77894527 2.23484789 6.78421662 2 1 C1.34 0.67 0.68 0.34 0 0 Z " fill="#292B68" transform="translate(76,170)"/>
<path d="M0 0 C8.71057646 0.91690278 16.09184198 3.29035497 24 7 C25.134375 7.515625 26.26875 8.03125 27.4375 8.5625 C30 10 30 10 32 13 C32.33 12.34 32.66 11.68 33 11 C33.99 11 34.98 11 36 11 C36.44201688 20.23324143 36.285021 30.0724685 31 38 C31.165 37.2575 31.33 36.515 31.5 35.75 C31.94165843 32.43756181 32.16771401 29.27419676 32.25 25.9375 C32.28867188 24.43509766 32.28867188 24.43509766 32.328125 22.90234375 C31.95186274 19.57421451 30.82248714 17.76730284 29 15 C29 14.34 29 13.68 29 13 C19.71310485 8.21451756 9.75458482 4.69730231 0 1 C0 0.67 0 0.34 0 0 Z " fill="#FB974D" transform="translate(168,170)"/>
<path d="M0 0 C4.32788053 -0.31667418 7.1087826 0.35673217 11.0078125 2.2109375 C13.36046726 3.14277331 15.63405105 3.56389914 18.125 4 C22.38227788 4.77110513 25.85710963 5.85710963 29 9 C29.07179964 10.51928038 29.08392007 12.04167482 29.0625 13.5625 C29.05347656 14.38878906 29.04445313 15.21507812 29.03515625 16.06640625 C29.02355469 16.70449219 29.01195313 17.34257812 29 18 C27.22293791 15.33440687 26.12451727 12.9719385 25 10 C22.69 9.67 20.38 9.34 18 9 C18 8.67 18 8.34 18 8 C12.72 7.67 7.44 7.34 2 7 C2 6.34 2 5.68 2 5 C1.34 5 0.68 5 0 5 C0 3.35 0 1.7 0 0 Z " fill="#AB312E" transform="translate(80,121)"/>
<path d="M0 0 C0.33 0 0.66 0 1 0 C1.63296894 34.3312615 1.63296894 34.3312615 -10 48 C-12.875 50.5 -12.875 50.5 -15 52 C-13.63055898 49.05043472 -12.12169591 46.47531189 -10 44 C-9.34 44 -8.68 44 -8 44 C-7.7834375 42.824375 -7.7834375 42.824375 -7.5625 41.625 C-7 39 -7 39 -6 37 C-5.34 37 -4.68 37 -4 37 C-4.33 35.35 -4.66 33.7 -5 32 C-4.01 32 -3.02 32 -2 32 C-2.33 28.04 -2.66 24.08 -3 20 C-3.66 20.33 -4.32 20.66 -5 21 C-5 20.34 -5 19.68 -5 19 C-5.66 19 -6.32 19 -7 19 C-7.1875 16.125 -7.1875 16.125 -7 13 C-6.01 12.34 -5.02 11.68 -4 11 C-3.01 12.32 -2.02 13.64 -1 15 C-0.67 10.05 -0.34 5.1 0 0 Z " fill="#1A7C8A" transform="translate(143,133)"/>
<path d="M0 0 C0.66 0 1.32 0 2 0 C2 2.31 2 4.62 2 7 C2.99 7 3.98 7 5 7 C5 7.66 5 8.32 5 9 C7.54194161 8.85811015 10.08347993 8.71160845 12.625 8.5625 C13.33785156 8.52318359 14.05070312 8.48386719 14.78515625 8.44335938 C20.30967675 8.11391549 25.64167662 7.44262552 31 6 C30.12202163 7.32451032 29.22177786 8.63427808 28.3125 9.9375 C27.81363281 10.66839844 27.31476563 11.39929688 26.80078125 12.15234375 C24.51879409 14.49373188 23.24615197 14.83576017 20 15 C17.38671875 14.29296875 17.38671875 14.29296875 14.6875 13.1875 C11.30482872 11.85908253 8.04460494 10.68088985 4.5 9.875 C1 9 1 9 -2 7 C-1.34 4.69 -0.68 2.38 0 0 Z " fill="#F9C042" transform="translate(85,88)"/>
<path d="M0 0 C0.33 0.66 0.66 1.32 1 2 C1.78375 1.649375 2.5675 1.29875 3.375 0.9375 C4.24125 0.628125 5.1075 0.31875 6 0 C6.66 0.33 7.32 0.66 8 1 C9.4801641 0.96910473 10.95973835 0.90228191 12.4375 0.8125 C16.7155585 0.75738814 16.7155585 0.75738814 19.125 2.8125 C20 5 20 5 19 8 C18.01 7.01 17.02 6.02 16 5 C15.33613281 5.20496094 14.67226562 5.40992187 13.98828125 5.62109375 C12.66376953 6.02521484 12.66376953 6.02521484 11.3125 6.4375 C10.44238281 6.70433594 9.57226562 6.97117187 8.67578125 7.24609375 C5.46684988 8.15021602 2.34660996 9 -1 9 C-4 3.25 -4 3.25 -4 1 C-2.68 0.67 -1.36 0.34 0 0 Z " fill="#D78337" transform="translate(174,99)"/>
<path d="M0 0 C0.33 0 0.66 0 1 0 C0.96519531 1.15628906 0.96519531 1.15628906 0.9296875 2.3359375 C0.91164063 3.33882812 0.89359375 4.34171875 0.875 5.375 C0.85179687 6.37273438 0.82859375 7.37046875 0.8046875 8.3984375 C0.72783152 11.16262173 0.72783152 11.16262173 3 13 C2.01 13.33 1.02 13.66 0 14 C0 15.32 0 16.64 0 18 C0.66 17.34 1.32 16.68 2 16 C1.98839844 16.90363281 1.97679687 17.80726562 1.96484375 18.73828125 C1.95582031 19.91777344 1.94679688 21.09726563 1.9375 22.3125 C1.92589844 23.48425781 1.91429687 24.65601563 1.90234375 25.86328125 C1.85100102 29.03059195 1.85100102 29.03059195 3 32 C3.66 32 4.32 32 5 32 C5.7721026 36.43958997 6 40.50737024 6 45 C1.71563318 40.5678964 0.483397 35.81075893 -1 30 C-1.18820313 29.40703125 -1.37640625 28.8140625 -1.5703125 28.203125 C-2.24200437 24.75917757 -2.19053983 21.30792702 -2.1875 17.8125 C-2.18814453 17.05525635 -2.18878906 16.2980127 -2.18945312 15.51782227 C-2.13819887 10.0889478 -1.52269443 5.2342621 0 0 Z " fill="#148FAE" transform="translate(26,50)"/>
<path d="M0 0 C0.99 0.33 1.98 0.66 3 1 C2.67 2.65 2.34 4.3 2 6 C2.66 6 3.32 6 4 6 C4 7.32 4 8.64 4 10 C5.32 10.33 6.64 10.66 8 11 C8.66 9.68 9.32 8.36 10 7 C10.66 7 11.32 7 12 7 C11.67 7.99 11.34 8.98 11 10 C10.34 10 9.68 10 9 10 C8.67 11.65 8.34 13.3 8 15 C9.32 15 10.64 15 12 15 C13.75 16.75 13.75 16.75 15 19 C15 20.32 15 21.64 15 23 C10.7200338 22.5244482 8.80581661 20.08639827 6 17 C5.29875 16.2575 4.5975 15.515 3.875 14.75 C1.40410264 11.12601721 -0.13663539 7.30875422 -1 3 C-0.67 2.01 -0.34 1.02 0 0 Z " fill="#FDC349" transform="translate(175,107)"/>
<path d="M0 0 C15.03738962 -0.12761853 29.98683809 0.12423222 45 1 C45 1.33 45 1.66 45 2 C30.56704995 5.78569182 14.21981433 5.43214992 0 1 C0 0.67 0 0.34 0 0 Z " fill="#EC7151" transform="translate(120,232)"/>
<path d="M0 0 C2.03120707 3.04681061 2.24659875 3.60118324 2.1953125 7.01171875 C2.18564453 8.14770508 2.18564453 8.14770508 2.17578125 9.30664062 C2.15902344 10.09232422 2.14226562 10.87800781 2.125 11.6875 C2.11597656 12.48478516 2.10695312 13.28207031 2.09765625 14.10351562 C2.07411585 16.069139 2.03824547 18.03460775 2 20 C-2.08015108 20.18705564 -4.78834328 19.97884509 -8.375 18 C-9.06335938 17.62875 -9.75171875 17.2575 -10.4609375 16.875 C-11.22277344 16.441875 -11.22277344 16.441875 -12 16 C-9.52552048 14.76276024 -7.7446651 15 -5 15 C-4.01 14.67 -3.02 14.34 -2 14 C-2.2784375 12.9171875 -2.2784375 12.9171875 -2.5625 11.8125 C-3.26842156 7.2744328 -2.20204664 3.96368395 0 0 Z " fill="#EFC362" transform="translate(202,115)"/>
<path d="M0 0 C0.33 0 0.66 0 1 0 C0.99555878 0.60499329 0.99111755 1.20998657 0.98654175 1.83331299 C0.94231153 8.12729532 0.91213483 14.42123354 0.89013672 20.71533203 C0.88007616 23.06463413 0.86642627 25.41392369 0.84912109 27.76318359 C0.82487548 31.13902885 0.81351741 34.5147086 0.8046875 37.890625 C0.79436493 38.94179504 0.78404236 39.99296509 0.77340698 41.07598877 C0.77325592 42.05670349 0.77310486 43.03741821 0.77294922 44.04785156 C0.768508 44.90944885 0.76406677 45.77104614 0.75949097 46.65875244 C1.02336872 49.22748402 1.6224 50.82598151 3 53 C3.66 53.33 4.32 53.66 5 54 C5.433125 54.9075 5.86625 55.815 6.3125 56.75 C8.10779762 60.20761023 10.1479189 62.37916872 13 65 C7.00563806 63.18352668 2.42812575 59.14218863 -1 54 C-1.24291992 51.39404297 -1.24291992 51.39404297 -1.23046875 48.2421875 C-1.22917969 47.07002686 -1.22789063 45.89786621 -1.2265625 44.69018555 C-1.21367188 43.43117432 -1.20078125 42.17216309 -1.1875 40.875 C-1.18105469 39.59085205 -1.17460938 38.3067041 -1.16796875 36.98364258 C-1.07089067 24.64486656 -0.61656273 12.32305573 0 0 Z " fill="#C4876B" transform="translate(108,139)"/>
<path d="M0 0 C8.57142857 0.71428571 8.57142857 0.71428571 12 4 C11.01 4 10.02 4 9 4 C9 5.65 9 7.3 9 9 C8.34 9 7.68 9 7 9 C7.33 9.763125 7.66 10.52625 8 11.3125 C10.00796208 16.70889808 8.11454292 20.925097 6 26 C5.67 26 5.34 26 5 26 C4.96132812 24.06447266 4.96132812 24.06447266 4.921875 22.08984375 C4.86556417 20.37236339 4.80821752 18.65491678 4.75 16.9375 C4.73582031 16.08994141 4.72164063 15.24238281 4.70703125 14.36914062 C4.47898294 8.46268936 3.32484638 4.90082356 0 0 Z " fill="#0C5570" transform="translate(111,131)"/>
<path d="M0 0 C2.32461782 1.04082888 4.63218091 2.10541145 6.9375 3.1875 C7.9265332 3.62545898 7.9265332 3.62545898 8.93554688 4.07226562 C10.83984375 4.98046875 10.83984375 4.98046875 14 7 C14.94140625 9.73828125 14.94140625 9.73828125 15 12 C13.68 12.33 12.36 12.66 11 13 C10.67 12.34 10.34 11.68 10 11 C9.34 11 8.68 11 8 11 C8 11.66 8 12.32 8 13 C5.36 12.67 2.72 12.34 0 12 C0.66 11.67 1.32 11.34 2 11 C3.13350534 8.98330173 3.13350534 8.98330173 4 7 C3.01 5.824375 3.01 5.824375 2 4.625 C0 2 0 2 0 0 Z " fill="#0E4293" transform="translate(64,164)"/>
<path d="M0 0 C3.84130598 1.50908449 5.48803112 3.8029487 8 7 C13.97099457 12.5116873 20.05706035 12.20971714 27.8125 12.5625 C28.69615234 12.60568359 29.57980469 12.64886719 30.49023438 12.69335938 C32.65999623 12.79891536 34.8299791 12.89991071 37 13 C37 13.33 37 13.66 37 14 C19.14350797 16.11161731 19.14350797 16.11161731 11 17 C10.62488281 16.27554688 10.24976562 15.55109375 9.86328125 14.8046875 C6.98457196 9.36631982 4.16745654 4.53517329 0 0 Z " fill="#09C08B" transform="translate(104,49)"/>
<path d="M0 0 C0.33 0.99 0.66 1.98 1 3 C-0.21484375 4.62109375 -0.21484375 4.62109375 -1.9375 6.4375 C-6.11181956 11.67472501 -5.60839907 16.58094893 -5 23 C-4.94199219 23.7321875 -4.88398437 24.464375 -4.82421875 25.21875 C-4.46649705 28.52942926 -3.88727817 30.16908275 -2 33 C1.37462715 32.45276317 3.08235 31.9451 6 30 C6.99 30 7.98 30 9 30 C9 29.34 9 28.68 9 28 C9.99 28.33 10.98 28.66 12 29 C10.60823368 29.96423026 9.2113777 30.92111602 7.8125 31.875 C7.03519531 32.40867188 6.25789063 32.94234375 5.45703125 33.4921875 C3.0323391 34.98015439 0.6666501 36.02428078 -2 37 C-7.46400923 31.71224913 -7.29227295 28.24652451 -7.4375 20.875 C-7.48326172 19.94945312 -7.52902344 19.02390625 -7.57617188 18.0703125 C-7.69357941 10.84209218 -5.73936784 7.31094572 -1 2 C-0.67 1.34 -0.34 0.68 0 0 Z " fill="#326289" transform="translate(115,157)"/>
<path d="M0 0 C1.90451517 3.56761292 3.29536281 7.26902587 4.6875 11.0625 C5.14511719 12.29097656 5.60273438 13.51945313 6.07421875 14.78515625 C7 18 7 18 6 21 C0.125 20.125 0.125 20.125 -1 19 C-1.20356195 12.5877985 -0.74428438 6.3662896 0 0 Z " fill="#ED7238" transform="translate(144,144)"/>
<path d="M0 0 C-2.51027705 2.5999298 -4.9863684 4.99091227 -8 7 C-8.66 7 -9.32 7 -10 7 C-11.52299523 9.93720508 -12.80100302 12.9168649 -14 16 C-14.33 16 -14.66 16 -15 16 C-15 14.35 -15 12.7 -15 11 C-15.99 11 -16.98 11 -18 11 C-17.1875 9.0625 -17.1875 9.0625 -16 7 C-15.01 6.67 -14.02 6.34 -13 6 C-13.33 5.01 -13.66 4.02 -14 3 C-10.07503936 -0.92496064 -5.24412188 -0.08740203 0 0 Z " fill="#0F8385" transform="translate(68,43)"/>
<path d="M0 0 C0 0.66 0 1.32 0 2 C0.66 2 1.32 2 2 2 C0.87548273 4.9719385 -0.22293791 7.33440687 -2 10 C-1.34 10.33 -0.68 10.66 0 11 C-4.38889325 10.33501617 -7.9811485 8.81242323 -12 7 C-11.67 5.35 -11.34 3.7 -11 2 C-10.443125 2.226875 -9.88625 2.45375 -9.3125 2.6875 C-5.37113054 3.22011749 -3.76660361 0 0 0 Z " fill="#273EB1" transform="translate(64,180)"/>
<path d="M0 0 C0.99 0.495 0.99 0.495 2 1 C3.88472859 1.15344209 5.77427874 1.24959571 7.6640625 1.31640625 C9.34628906 1.37924805 9.34628906 1.37924805 11.0625 1.44335938 C12.238125 1.48267578 13.41375 1.52199219 14.625 1.5625 C16.40003906 1.62727539 16.40003906 1.62727539 18.2109375 1.69335938 C21.14050328 1.79967426 24.07015588 1.90170642 27 2 C27.33 4.31 27.66 6.62 28 9 C27.34 8.34 26.68 7.68 26 7 C18.53128304 4.50014019 9.76161371 4.02979829 2 5 C1.34 5.99 0.68 6.98 0 8 C0 5.36 0 2.72 0 0 Z " fill="#E05F32" transform="translate(80,131)"/>
<path d="M0 0 C1.98 0 3.96 0 6 0 C8.32590854 3.63423209 8.16265833 6.77088331 8 11 C2.57615894 10.39735099 2.57615894 10.39735099 0.1875 8.75 C-1.30406662 6.55190182 -1.64715325 4.61106596 -2 2 C-1.34 2 -0.68 2 0 2 C0 1.34 0 0.68 0 0 Z " fill="#D9552B" transform="translate(193,186)"/>
<path d="M0 0 C0.33 0 0.66 0 1 0 C1.66 5.28 2.32 10.56 3 16 C10.27132745 16.96491211 10.27132745 16.96491211 17 16 C16.34 16.33 15.68 16.66 15 17 C15 17.66 15 18.32 15 19 C13.75823305 19.70226141 12.50614401 20.38629109 11.25 21.0625 C10.55390625 21.44535156 9.8578125 21.82820313 9.140625 22.22265625 C6.5792548 23.15278886 5.48440081 23.08040119 3 22 C-1.2585854 15.61212191 -0.10949904 7.40943497 0 0 Z " fill="#0867B6" transform="translate(109,168)"/>
<path d="M0 0 C-0.33 0.66 -0.66 1.32 -1 2 C-3.67092109 2.28690957 -6.25891715 2.46758047 -8.9375 2.5625 C-14.12716634 2.56400645 -14.12716634 2.56400645 -19 4 C-20.87379605 4.07033769 -22.75001102 4.0843022 -24.625 4.0625 C-25.62789062 4.05347656 -26.63078125 4.04445313 -27.6640625 4.03515625 C-28.43492188 4.02355469 -29.20578125 4.01195313 -30 4 C-30 4.66 -30 5.32 -30 6 C-31.76858691 6.67260351 -33.53996016 7.33788395 -35.3125 8 C-36.29863281 8.37125 -37.28476563 8.7425 -38.30078125 9.125 C-41 10 -41 10 -44 10 C-34.93640064 3.32155836 -25.57355831 1.28863473 -14.5 0.1875 C-13.32179687 0.05408203 -12.14359375 -0.07933594 -10.9296875 -0.21679688 C-2.29051857 -1.14525928 -2.29051857 -1.14525928 0 0 Z " fill="#AEE771" transform="translate(143,63)"/>
<path d="M0 0 C0.66 0 1.32 0 2 0 C2.061875 0.61875 2.12375 1.2375 2.1875 1.875 C2.455625 2.57625 2.72375 3.2775 3 4 C3.763125 4.28875 4.52625 4.5775 5.3125 4.875 C8.93657847 6.39205611 9.85406609 8.78109913 12 12 C14.59915538 13.19027984 14.59915538 13.19027984 17 14 C17.33 14.99 17.66 15.98 18 17 C22.53492633 19.26746317 27.10972685 20.70258059 32 22 C31.01 22.66 30.02 23.32 29 24 C20.29764118 21.59934929 13.09516453 16.6030949 7 10 C6.113125 9.175 5.22625 8.35 4.3125 7.5 C2.02782172 5.03007754 0.99900799 3.17866178 0 0 Z " fill="#2F3D90" transform="translate(35,170)"/>
<path d="M0 0 C2.46726679 0.68062532 3.71905056 1.51353112 5.00390625 3.73828125 C6.49318937 7.28451146 7.214891 9.20655632 6.1875 13 C5.795625 13.66 5.40375 14.32 5 15 C2.5625 14.625 2.5625 14.625 0 14 C-1.24377393 11.51245214 -1.13306235 9.77344699 -1.125 7 C-1.12757813 6.113125 -1.13015625 5.22625 -1.1328125 4.3125 C-1 2 -1 2 0 0 Z " fill="#0FAEB6" transform="translate(137,123)"/>
<path d="M0 0 C-3 2 -3 2 -6 2 C-6.165 2.9075 -6.33 3.815 -6.5 4.75 C-8.37662767 8.81602661 -10.09203095 9.38846783 -14.125 10.9453125 C-16.48412 12.2723175 -16.891307 13.58361781 -18 16 C-20.625 17.75 -20.625 17.75 -23 19 C-22 17 -22 17 -21 15 C-20.59265625 14.04867187 -20.1853125 13.09734375 -19.765625 12.1171875 C-17.76838357 8.59108427 -15.87929053 7.03620026 -12.5625 4.75 C-11.61503906 4.08484375 -10.66757812 3.4196875 -9.69140625 2.734375 C-3.59079664 -1.19693221 -3.59079664 -1.19693221 0 0 Z " fill="#1EC0B2" transform="translate(56,22)"/>
<path d="M0 0 C2.31 0.33 4.62 0.66 7 1 C2.30795557 10.19640709 -4.30230718 15.61571397 -13 21 C-13.66 20.67 -14.32 20.34 -15 20 C-9.25 15 -9.25 15 -7 15 C-6.67 14.01 -6.34 13.02 -6 12 C-4.67532254 11.3162955 -3.34136367 10.65035814 -2 10 C0.4294516 6.3558226 0.16179575 4.28758728 0 0 Z " fill="#E68E5B" transform="translate(192,208)"/>
<path d="M0 0 C1.45792884 -0.05399736 2.91642712 -0.09279177 4.375 -0.125 C5.18710938 -0.14820313 5.99921875 -0.17140625 6.8359375 -0.1953125 C9 0 9 0 11 2 C11.99 2.33 12.98 2.66 14 3 C14 3.66 14 4.32 14 5 C15.32 5.33 16.64 5.66 18 6 C18 6.99 18 7.98 18 9 C13.46900325 8.45628039 10.16327397 7.28697545 6.1875 5.0625 C5.23230469 4.53785156 4.27710937 4.01320312 3.29296875 3.47265625 C1 2 1 2 0 0 Z " fill="#EE6948" transform="translate(102,223)"/>
<path d="M0 0 C3.34539837 3.74769311 4.88961214 7.03502912 6.375 11.8125 C8.41948364 17.86340966 10.90292059 22.17685589 15 27 C15.33 27.66 15.66 28.32 16 29 C12.16780823 27.43873668 9.82638778 24.97133075 7 22 C6.20142578 21.32904297 6.20142578 21.32904297 5.38671875 20.64453125 C3.54573419 18.46127914 3.53815939 16.95023368 3.375 14.125 C3.12746357 10.66959348 2.78942451 7.38324792 2 4 C1.34 4 0.68 4 0 4 C0 2.68 0 1.36 0 0 Z " fill="#1A5398" transform="translate(48,135)"/>
<path d="M0 0 C0.99 0 1.98 0 3 0 C3.44201688 9.23324143 3.285021 19.0724685 -2 27 C-1.835 26.2575 -1.67 25.515 -1.5 24.75 C-0.64199623 18.31497175 -0.10496138 11.28671542 -2 5 C-1.34 5 -0.68 5 0 5 C0 3.35 0 1.7 0 0 Z " fill="#E38D54" transform="translate(201,181)"/>
<path d="M0 0 C1.01320312 0.00451172 2.02640625 0.00902344 3.0703125 0.01367188 C5.54693827 0.02535407 8.02343657 0.04173418 10.5 0.0625 C10.5 0.7225 10.5 1.3825 10.5 2.0625 C11.16 2.0625 11.82 2.0625 12.5 2.0625 C12.5 2.7225 12.5 3.3825 12.5 4.0625 C11.74976563 3.918125 10.99953125 3.77375 10.2265625 3.625 C-2.35783071 1.34269191 -16.01129671 0.41114546 -27.5 7.0625 C-28.16 7.0625 -28.82 7.0625 -29.5 7.0625 C-29.5 6.4025 -29.5 5.7425 -29.5 5.0625 C-28.00549145 4.40405873 -26.50399308 3.761479 -25 3.125 C-24.1646875 2.76535156 -23.329375 2.40570313 -22.46875 2.03515625 C-15.1561706 -0.36067568 -7.60921559 -0.06490801 0 0 Z " fill="#E6C668" transform="translate(145.5,86.9375)"/>
<path d="M0 0 C0 0.66 0 1.32 0 2 C1.32 2.66 2.64 3.32 4 4 C1 4 1 4 -1.5 2.625 C-11.22650417 -1.89087694 -21.62307808 -1.48241742 -32 0 C-31.67 -0.66 -31.34 -1.32 -31 -2 C-21.28174906 -4.84436613 -9.26655182 -3.74226131 0 0 Z " fill="#1FBFA7" transform="translate(100,44)"/>
<path d="M0 0 C7.81929982 0.73305936 14.6457187 4.13658914 20.5625 9.1875 C22 11 22 11 22 13 C19.5625 12.1875 19.5625 12.1875 17 11 C16.67 10.01 16.34 9.02 16 8 C13.44829129 6.4161808 10.92393881 5.62655832 8 5 C8 4.34 8 3.68 8 3 C6.02 3 4.04 3 2 3 C1.34 5.64 0.68 8.28 0 11 C-0.33 11 -0.66 11 -1 11 C-1.02688151 9.35425434 -1.04634123 7.70838587 -1.0625 6.0625 C-1.07410156 5.14597656 -1.08570312 4.22945313 -1.09765625 3.28515625 C-1 1 -1 1 0 0 Z " fill="#166399" transform="translate(25,121)"/>
<path d="M0 0 C0.66 0.66 1.32 1.32 2 2 C4.58354218 2.16687448 4.58354218 2.16687448 7 2 C7.33 2.99 7.66 3.98 8 5 C8.33 5.66 8.66 6.32 9 7 C9.66 7 10.32 7 11 7 C11 7.66 11 8.32 11 9 C8 10 8 10 4.64453125 8.34765625 C3.36110983 7.59622298 2.08393866 6.83403499 0.8125 6.0625 C-0.16879883 5.48338867 -0.16879883 5.48338867 -1.16992188 4.89257812 C-2.78535316 3.93746912 -4.39340525 2.96989934 -6 2 C-3 0 -3 0 0 0 Z " fill="#088AB6" transform="translate(45,102)"/>
<path d="M0 0 C0.66 0 1.32 0 2 0 C2.68241681 9.38323118 -0.75121372 15.97578391 -6.47265625 23.26953125 C-8.43522098 25.49310203 -10.58034134 27.29200565 -13 29 C-11.63055898 26.05043472 -10.12169591 23.47531189 -8 21 C-7.34 21 -6.68 21 -6 21 C-5.855625 20.21625 -5.71125 19.4325 -5.5625 18.625 C-5 16 -5 16 -4 14 C-3.34 14 -2.68 14 -2 14 C-2.33 12.35 -2.66 10.7 -3 9 C-2.01 9 -1.02 9 0 9 C0 6.03 0 3.06 0 0 Z " fill="#227496" transform="translate(141,156)"/>
<path d="M0 0 C1.26585938 -0.00773437 2.53171875 -0.01546875 3.8359375 -0.0234375 C5.65738281 -0.01957031 5.65738281 -0.01957031 7.515625 -0.015625 C8.61680664 -0.01336914 9.71798828 -0.01111328 10.85253906 -0.00878906 C13.75 0.25 13.75 0.25 17.75 2.25 C6.86 2.25 -4.03 2.25 -15.25 2.25 C-15.58 3.24 -15.91 4.23 -16.25 5.25 C-18.89 4.92 -21.53 4.59 -24.25 4.25 C-18.41374998 -1.58625002 -7.58567302 -0.04692169 0 0 Z " fill="#20BFA7" transform="translate(80.25,16.75)"/>
<path d="M0 0 C4.16138263 -0.08159574 7.9472484 0.01751476 12 1 C11.67 1.66 11.34 2.32 11 3 C9.72125 2.95875 8.4425 2.9175 7.125 2.875 C1.91127144 2.85842217 -2.94007672 3.81688642 -8 5 C-8 4.34 -8 3.68 -8 3 C-9.65 3.33 -11.3 3.66 -13 4 C-13.33 4.99 -13.66 5.98 -14 7 C-14.66 7 -15.32 7 -16 7 C-16.66 5.68 -17.32 4.36 -18 3 C-14.81175432 1.40587716 -11.37103338 1.89825265 -7.875 1.9375 C-7.12089844 1.94201172 -6.36679688 1.94652344 -5.58984375 1.95117188 C-3.72652873 1.96296501 -1.86325445 1.98090058 0 2 C0 1.34 0 0.68 0 0 Z " fill="#F7E34D" transform="translate(142,63)"/>
<path d="M0 0 C0.5775 0.61875 1.155 1.2375 1.75 1.875 C3.78869019 4.06462422 3.78869019 4.06462422 6.0625 4.8125 C9.95987514 7.2012138 10.73951768 11.97810784 11.8125 16.1875 C12.01324502 19.19867528 11.63005488 20.50697489 10 23 C9.46770674 21.73392393 8.94955456 20.46189588 8.4375 19.1875 C8.14746094 18.47980469 7.85742188 17.77210937 7.55859375 17.04296875 C7 15 7 15 8 12 C7.60602665 9.36195411 7.60602665 9.36195411 7 7 C6.38125 6.9175 5.7625 6.835 5.125 6.75 C3 6 3 6 1.875 4 C1.58625 3.34 1.2975 2.68 1 2 C0.34 1.67 -0.32 1.34 -1 1 C-0.67 0.67 -0.34 0.34 0 0 Z " fill="#F9E04E" transform="translate(185,79)"/>
<path d="M0 0 C5.10078437 0.5000769 9.25923109 1.25923109 13 5 C13.07179964 6.51928038 13.08392007 8.04167482 13.0625 9.5625 C13.05347656 10.38878906 13.04445313 11.21507812 13.03515625 12.06640625 C13.02355469 12.70449219 13.01195313 13.34257812 13 14 C11.22293791 11.33440687 10.12451727 8.9719385 9 6 C6.69 5.67 4.38 5.34 2 5 C2.33 4.01 2.66 3.02 3 2 C2.01 1.34 1.02 0.68 0 0 Z " fill="#865752" transform="translate(96,125)"/>
<path d="M0 0 C2.97 0.495 2.97 0.495 6 1 C6.33 1.99 6.66 2.98 7 4 C6.01 4.33 5.02 4.66 4 5 C3.67 5.66 3.34 6.32 3 7 C3.66 7.33 4.32 7.66 5 8 C4.34 9.65 3.68 11.3 3 13 C2.01 12.67 1.02 12.34 0 12 C0.33 10.35 0.66 8.7 1 7 C0.34 6.67 -0.32 6.34 -1 6 C-0.34 6 0.32 6 1 6 C0.34 5.34 -0.32 4.68 -1 4 C-0.625 1.875 -0.625 1.875 0 0 Z " fill="#0569B7" transform="translate(27,123)"/>
<path d="M0 0 C0.66 0 1.32 0 2 0 C2 2.31 2 4.62 2 7 C2.99 7 3.98 7 5 7 C5 7.66 5 8.32 5 9 C5.86625 8.938125 6.7325 8.87625 7.625 8.8125 C11.44199033 9.02455502 13.71077536 10.12044307 17 12 C14.69444768 12.82341154 13.52015752 13.24150171 11.25 12.1875 C10.5075 11.795625 9.765 11.40375 9 11 C6.97735307 10.46254209 4.94831054 10.00232395 2.90234375 9.5625 C1 9 1 9 -2 7 C-1.34 4.69 -0.68 2.38 0 0 Z " fill="#C7C26D" transform="translate(85,88)"/>
<path d="M0 0 C0.33 0 0.66 0 1 0 C1.02505615 0.67579102 1.0501123 1.35158203 1.07592773 2.04785156 C1.19210742 5.1154168 1.31473437 8.18269158 1.4375 11.25 C1.47681641 12.31347656 1.51613281 13.37695312 1.55664062 14.47265625 C1.59853516 15.49746094 1.64042969 16.52226563 1.68359375 17.578125 C1.72025146 18.52075195 1.75690918 19.46337891 1.79467773 20.43457031 C1.97939228 22.74251377 2.35861612 24.78140524 3 27 C-0.7443511 23.77077134 -0.68788623 20.25897374 -1.0625 15.5625 C-1.46690579 8.98304189 -1.46690579 8.98304189 -4 3 C-3.01 3.33 -2.02 3.66 -1 4 C-0.67 2.68 -0.34 1.36 0 0 Z " fill="#1D959C" transform="translate(52,54)"/>
<path d="M0 0 C0 0.33 0 0.66 0 1 C-2.72880461 1.19555932 -5.45771069 1.38170447 -8.1875 1.5625 C-9.34088867 1.64661133 -9.34088867 1.64661133 -10.51757812 1.73242188 C-14.54061353 1.99141557 -18.06072372 2.06573607 -22 1 C-22 0.34 -22 -0.32 -22 -1 C-14.71806432 -3.13171419 -7.07567549 -2.51579573 0 0 Z " fill="#F16E34" transform="translate(106,137)"/>
<path d="M0 0 C0.99 0.33 1.98 0.66 3 1 C2.67 2.65 2.34 4.3 2 6 C2.66 6 3.32 6 4 6 C4 7.32 4 8.64 4 10 C4.66 10 5.32 10 6 10 C6.33 12.31 6.66 14.62 7 17 C2.33401568 13.09066179 0.10770393 9.03585612 -1 3 C-0.67 2.01 -0.34 1.02 0 0 Z " fill="#EDBB64" transform="translate(175,107)"/>
<path d="M0 0 C1.45880109 0.14107747 2.91703551 0.28802415 4.375 0.4375 C5.59316406 0.55931641 5.59316406 0.55931641 6.8359375 0.68359375 C9 1 9 1 11 2 C11 2.66 11 3.32 11 4 C11.66 4.66 12.32 5.32 13 6 C12.34 7.32 11.68 8.64 11 10 C9.2925002 8.71937515 7.62626404 7.38232443 6 6 C6 5.34 6 4.68 6 4 C4.02 3.34 2.04 2.68 0 2 C0 1.34 0 0.68 0 0 Z " fill="#B16A2C" transform="translate(158,90)"/>
<path d="M0 0 C0.66 0 1.32 0 2 0 C2.0825 0.61875 2.165 1.2375 2.25 1.875 C2.81258459 4.18437567 2.81258459 4.18437567 5.0625 5.25 C5.701875 5.4975 6.34125 5.745 7 6 C6.01 7.98 5.02 9.96 4 12 C3.34 12 2.68 12 2 12 C1.67 13.65 1.34 15.3 1 17 C-0.53266582 13.93466836 -0.10276471 10.73245728 -0.0625 7.375 C-0.05798828 6.66859375 -0.05347656 5.9621875 -0.04882812 5.234375 C-0.03703875 3.48954725 -0.01910324 1.744763 0 0 Z " fill="#B5443C" transform="translate(174,180)"/>
<path d="M0 0 C4.22961842 1.30916761 8.23847603 2.63811286 12 5 C12.875 7.6875 12.875 7.6875 13 10 C11.68 10.33 10.36 10.66 9 11 C8.54625 10.195625 8.0925 9.39125 7.625 8.5625 C6.25274335 5.91143428 6.25274335 5.91143428 4 5 C4 4.34 4 3.68 4 3 C2.68 2.34 1.36 1.68 0 1 C0 0.67 0 0.34 0 0 Z " fill="#14387D" transform="translate(66,166)"/>
<path d="M0 0 C0.33 0 0.66 0 1 0 C1.19491452 1.45736087 1.38069358 2.91594593 1.5625 4.375 C1.66691406 5.18710938 1.77132812 5.99921875 1.87890625 6.8359375 C2 9 2 9 1 11 C1.66 11.33 2.32 11.66 3 12 C3 15.96 3 19.92 3 24 C2.34 24.33 1.68 24.66 1 25 C0.10250178 21.9317362 -0.11711768 19.20730024 -0.09765625 16.015625 C-0.09443359 15.08105469 -0.09121094 14.14648438 -0.08789062 13.18359375 C-0.07951172 12.21550781 -0.07113281 11.24742187 -0.0625 10.25 C-0.05798828 9.26644531 -0.05347656 8.28289062 -0.04882812 7.26953125 C-0.03706483 4.84629209 -0.02062684 2.42317727 0 0 Z " fill="#F98B4C" transform="translate(81,152)"/>
<path d="M0 0 C5.23880078 0.55145271 9.97350697 1.42922093 15 3 C15 3.66 15 4.32 15 5 C17.64 5.66 20.28 6.32 23 7 C21.22265625 8.1015625 21.22265625 8.1015625 19 9 C17.09693969 8.1319374 15.19939761 7.24267088 13.37109375 6.2265625 C9.1049418 4.01968983 4.53218331 2.56626923 0 1 C0 0.67 0 0.34 0 0 Z " fill="#E7975A" transform="translate(151,165)"/>
<path d="M0 0 C0.66 0.33 1.32 0.66 2 1 C-1.75 6.875 -1.75 6.875 -4 8 C-4.474375 8.804375 -4.94875 9.60875 -5.4375 10.4375 C-7 13 -7 13 -10 15 C-10 10.4837994 -9.60408629 10.0714716 -6.6875 6.9375 C-5.76517578 5.93009766 -5.76517578 5.93009766 -4.82421875 4.90234375 C-3.23627121 3.24638989 -1.63226376 1.61217436 0 0 Z " fill="#F2BC5E" transform="translate(97,74)"/>
<path d="M0 0 C6.75 0.875 6.75 0.875 9 2 C9 2.66 9 3.32 9 4 C10.32 4 11.64 4 13 4 C13 4.99 13 5.98 13 7 C9.7 6.67 6.4 6.34 3 6 C3 5.01 3 4.02 3 3 C2.01 2.67 1.02 2.34 0 2 C0 1.34 0 0.68 0 0 Z " fill="#FBE845" transform="translate(156,65)"/>
<path d="M0 0 C6.51551313 -0.12529833 6.51551313 -0.12529833 8.8125 0.46875 C11.77937719 1.18927732 14.7065359 1.34945751 17.75 1.5625 C18.92046875 1.64628906 20.0909375 1.73007813 21.296875 1.81640625 C22.18890625 1.87699219 23.0809375 1.93757812 24 2 C23.67 2.66 23.34 3.32 23 4 C15.74 3.67 8.48 3.34 1 3 C0.67 2.01 0.34 1.02 0 0 Z " fill="#D6502D" transform="translate(81,130)"/>
<path d="M0 0 C1.21236328 0.01353516 1.21236328 0.01353516 2.44921875 0.02734375 C3.37154297 0.04474609 3.37154297 0.04474609 4.3125 0.0625 C4.3125 0.3925 4.3125 0.7225 4.3125 1.0625 C3.59964844 1.18367188 2.88679688 1.30484375 2.15234375 1.4296875 C-5.87417368 2.81854106 -5.87417368 2.81854106 -13.6875 5.0625 C-14.0175 5.7225 -14.3475 6.3825 -14.6875 7.0625 C-14.81125 6.258125 -14.935 5.45375 -15.0625 4.625 C-15.371875 3.3565625 -15.371875 3.3565625 -15.6875 2.0625 C-16.3475 1.7325 -17.0075 1.4025 -17.6875 1.0625 C-17.00042969 1.07410156 -16.31335938 1.08570312 -15.60546875 1.09765625 C-14.25388672 1.11119141 -14.25388672 1.11119141 -12.875 1.125 C-11.53501953 1.14240234 -11.53501953 1.14240234 -10.16796875 1.16015625 C-6.63035573 1.02088015 -3.61575827 -0.05240229 0 0 Z " fill="#FBC946" transform="translate(129.6875,86.9375)"/>
<path d="M0 0 C4.29 0 8.58 0 13 0 C13.33 0.66 13.66 1.32 14 2 C16.52733235 2.65555119 16.52733235 2.65555119 19 3 C19 3.66 19 4.32 19 5 C19.66 5.33 20.32 5.66 21 6 C20.01 6.33 19.02 6.66 18 7 C16.32522176 6.01364529 14.6599434 5.01112101 13 4 C10.75005265 3.35904196 8.4760432 2.79794856 6.1875 2.3125 C5.02605469 2.06113281 3.86460937 1.80976562 2.66796875 1.55078125 C1.78753906 1.36902344 0.90710938 1.18726562 0 1 C0 0.67 0 0.34 0 0 Z " fill="#FAC84B" transform="translate(170,92)"/>
<path d="M0 0 C5.23175837 -0.38281159 8.37802694 0.78145293 13 3 C13 3.33 13 3.66 13 4 C11.20843648 4.16777183 9.4167455 4.33418294 7.625 4.5 C6.62726563 4.5928125 5.62953125 4.685625 4.6015625 4.78125 C2 5 2 5 0 5 C0 3.35 0 1.7 0 0 Z " fill="#9A262E" transform="translate(80,121)"/>
<path d="M0 0 C3.41554611 0.8706294 6.42147915 1.64398717 9.4375 3.5 C11.83266391 4.90204717 13.52348557 5.45399311 16.1875 6.0625 C20 7 20 7 22 9 C19.69 9 17.38 9 15 9 C15 8.34 15 7.68 15 7 C14.0925 7.061875 13.185 7.12375 12.25 7.1875 C8.57562131 6.97551661 7.70255768 6.35384056 5 4 C4.0925 3.46375 3.185 2.9275 2.25 2.375 C1.5075 1.92125 0.765 1.4675 0 1 C0 0.67 0 0.34 0 0 Z " fill="#24A78F" transform="translate(76,92)"/>
<path d="M0 0 C4.04256383 1.22217046 7.49288959 2.62754296 11 5 C11 5.33 11 5.66 11 6 C6.59466849 6.57774839 2.4432151 7 -2 7 C-2 6.01 -2 5.02 -2 4 C-0.35 3.67 1.3 3.34 3 3 C2.01 2.67 1.02 2.34 0 2 C0 1.34 0 0.68 0 0 Z " fill="#D16F31" transform="translate(178,94)"/>
<path d="M0 0 C0.33 0 0.66 0 1 0 C1.086985 3.77068832 1.14038579 7.54111932 1.1875 11.3125 C1.21263672 12.38435547 1.23777344 13.45621094 1.26367188 14.56054688 C1.27333984 15.58857422 1.28300781 16.61660156 1.29296875 17.67578125 C1.3086792 18.62364502 1.32438965 19.57150879 1.34057617 20.5480957 C0.94475643 23.39771408 0.22175281 24.24976105 -2 26 C-1.9278125 25.35675781 -1.855625 24.71351563 -1.78125 24.05078125 C-1.11383441 17.55274891 -0.9382503 11.18321839 -1.0625 4.65234375 C-1 2 -1 2 0 0 Z " fill="#FC9244" transform="translate(106,140)"/>
<path d="M0 0 C0.33 0 0.66 0 1 0 C0.96519531 1.15628906 0.96519531 1.15628906 0.9296875 2.3359375 C0.91164063 3.33882812 0.89359375 4.34171875 0.875 5.375 C0.85179687 6.37273438 0.82859375 7.37046875 0.8046875 8.3984375 C0.72783152 11.16262173 0.72783152 11.16262173 3 13 C2.01 13.33 1.02 13.66 0 14 C-0.33 17.63 -0.66 21.26 -1 25 C-1.33 25 -1.66 25 -2 25 C-2.3690205 8.29157175 -2.3690205 8.29157175 0 0 Z " fill="#21929F" transform="translate(26,50)"/>
<path d="M0 0 C1 3 1 3 0.5 4.9375 C-0.07702481 7.31772734 0.25977147 8.69706679 1 11 C-0.32 11 -1.64 11 -3 11 C-3 10.34 -3 9.68 -3 9 C-4.98 9 -6.96 9 -9 9 C-8.2575 8.443125 -7.515 7.88625 -6.75 7.3125 C-4.08292005 5.06972822 -2.08443768 2.77925025 0 0 Z " fill="#E87B49" transform="translate(173,197)"/>
<path d="M0 0 C1.98 0 3.96 0 6 0 C6.33 1.98 6.66 3.96 7 6 C6.34 5.67 5.68 5.34 5 5 C2.99199544 5.28112064 0.98985949 5.61067967 -1 6 C-1.33 4.68 -1.66 3.36 -2 2 C-1.34 2 -0.68 2 0 2 C0 1.34 0 0.68 0 0 Z " fill="#C94228" transform="translate(193,186)"/>
<path d="M0 0 C0.33 0 0.66 0 1 0 C1.33 5.94 1.66 11.88 2 18 C3.32 18.66 4.64 19.32 6 20 C4.1875 20.625 4.1875 20.625 2 21 C1.01 20.34 0.02 19.68 -1 19 C-1.328125 17.1875 -1.328125 17.1875 -1.25 15 C-1.22421875 14.20722656 -1.1984375 13.41445312 -1.171875 12.59765625 C-0.89315916 8.38524634 -0.49018258 4.19281174 0 0 Z " fill="#965C4C" transform="translate(144,144)"/>
<path d="M0 0 C0.66 0.33 1.32 0.66 2 1 C-0.11552095 3.93858077 -2.23045521 6.65283752 -5 9 C-8.9375 9 -8.9375 9 -12 8 C-12 7.67 -12 7.34 -12 7 C-10.35 7 -8.7 7 -7 7 C-6.95875 6.401875 -6.9175 5.80375 -6.875 5.1875 C-6 3 -6 3 -3.0625 1.1875 C-2.051875 0.795625 -1.04125 0.40375 0 0 Z " fill="#DCBF62" transform="translate(114,94)"/>
<path d="M0 0 C0 0.33 0 0.66 0 1 C-3.63 1 -7.26 1 -11 1 C-11 1.66 -11 2.32 -11 3 C-12.76858691 3.67260351 -14.53996016 4.33788395 -16.3125 5 C-17.29863281 5.37125 -18.28476563 5.7425 -19.30078125 6.125 C-22 7 -22 7 -25 7 C-16.71503605 1.05182076 -10.30675604 -1.97958571 0 0 Z " fill="#DDC96E" transform="translate(124,66)"/>
<path d="M0 0 C1.485 0.680625 1.485 0.680625 3 1.375 C9.67260397 3.92557869 16.94613606 4.27235627 24 5 C24 5.33 24 5.66 24 6 C7.05464752 6.65081724 7.05464752 6.65081724 1 3 C0.67 2.01 0.34 1.02 0 0 Z " fill="#E17F5C" transform="translate(123,205)"/>
<path d="M0 0 C0.66 0.33 1.32 0.66 2 1 C1.75 4.375 1.75 4.375 1 8 C-1.41923777 9.83528382 -4.05080403 10.36802944 -7 11 C-6.8125 9.125 -6.8125 9.125 -6 7 C-5.175 6.690625 -4.35 6.38125 -3.5 6.0625 C-2.675 5.711875 -1.85 5.36125 -1 5 C-0.10613836 2.45224694 -0.10613836 2.45224694 0 0 Z " fill="#027CB2" transform="translate(118,158)"/>
<path d="M0 0 C5.61 0 11.22 0 17 0 C17 0.33 17 0.66 17 1 C9.41 1.99 1.82 2.98 -6 4 C-6 3.34 -6 2.68 -6 2 C-4.02 2 -2.04 2 0 2 C0 1.34 0 0.68 0 0 Z " fill="#09C7B7" transform="translate(52,42)"/>
<path d="M0 0 C0 1.98 0 3.96 0 6 C-0.99 6.495 -0.99 6.495 -2 7 C-2 8.32 -2 9.64 -2 11 C-2.66 11 -3.32 11 -4 11 C-4.33 11.66 -4.66 12.32 -5 13 C-4.67 9.04 -4.34 5.08 -4 1 C-1 0 -1 0 0 0 Z " fill="#0589B3" transform="translate(141,159)"/>
<path d="M0 0 C0.66 0 1.32 0 2 0 C2 0.66 2 1.32 2 2 C7.61 2 13.22 2 19 2 C19 2.33 19 2.66 19 3 C8.44191344 4.33257403 8.44191344 4.33257403 4 3 C4 3.66 4 4.32 4 5 C2.68 5 1.36 5 0 5 C0 3.35 0 1.7 0 0 Z " fill="#BC402F" transform="translate(80,126)"/>
<path d="M0 0 C2 3 2 3 2 5 C-1.27075883 5.0580476 -4.54138524 5.09361165 -7.8125 5.125 C-8.74126953 5.14175781 -9.67003906 5.15851562 -10.62695312 5.17578125 C-11.51962891 5.18222656 -12.41230469 5.18867187 -13.33203125 5.1953125 C-14.15421143 5.20578613 -14.9763916 5.21625977 -15.82348633 5.22705078 C-18 5 -18 5 -21 3 C-14.4 3.33 -7.8 3.66 -1 4 C-0.67 2.68 -0.34 1.36 0 0 Z " fill="#12D0A3" transform="translate(140,57)"/>
<path d="M0 0 C2.97 1.98 2.97 1.98 6 4 C5.67 5.65 5.34 7.3 5 9 C3.68 8.67 2.36 8.34 1 8 C1 7.01 1 6.02 1 5 C0.34 4.67 -0.32 4.34 -1 4 C-0.67 2.68 -0.34 1.36 0 0 Z " fill="#0758B7" transform="translate(52,154)"/>
<path d="M0 0 C2.31 0.33 4.62 0.66 7 1 C6.01 2.98 5.02 4.96 4 7 C2.68 7 1.36 7 0 7 C0 4.69 0 2.38 0 0 Z " fill="#F68F49" transform="translate(192,208)"/>
<path d="M0 0 C6.85921925 1.61191652 13.46207289 3.35968328 20 6 C16.08263419 7.1700097 13.02040985 6.69584017 9 6 C9 5.34 9 4.68 9 4 C4.545 3.01 4.545 3.01 0 2 C0 1.34 0 0.68 0 0 Z " fill="#E5AC5F" transform="translate(151,139)"/>
<path d="M0 0 C2.97 0.495 2.97 0.495 6 1 C5.34 2.98 4.68 4.96 4 7 C1.5625 6.625 1.5625 6.625 -1 6 C-1.33 5.34 -1.66 4.68 -2 4 C-1.0625 1.875 -1.0625 1.875 0 0 Z " fill="#05B2BF" transform="translate(138,131)"/>
<path d="M0 0 C4.29 0.99 8.58 1.98 13 3 C12.67 3.99 12.34 4.98 12 6 C9.9375 6.6875 9.9375 6.6875 8 7 C7.34 6.01 6.68 5.02 6 4 C5.01 4 4.02 4 3 4 C3 3.34 3 2.68 3 2 C2.01 1.67 1.02 1.34 0 1 C0 0.67 0 0.34 0 0 Z " fill="#08B7B8" transform="translate(106,104)"/>
<path d="M0 0 C0.99 0.495 0.99 0.495 2 1 C4.37123246 1.23029956 6.74741943 1.41119942 9.125 1.5625 C10.40632813 1.64628906 11.68765625 1.73007812 13.0078125 1.81640625 C14.48894531 1.90728516 14.48894531 1.90728516 16 2 C16 2.33 16 2.66 16 3 C11.05 3.66 6.1 4.32 1 5 C0.67 3.35 0.34 1.7 0 0 Z " fill="#25A46C" transform="translate(114,61)"/>
<path d="M0 0 C2.64752004 2.57784846 4.94432065 4.91648098 7 8 C7 8.99 7 9.98 7 11 C3.73217086 9.91072362 3.18062667 9.31652071 1.25 6.625 C0.80140625 6.01914062 0.3528125 5.41328125 -0.109375 4.7890625 C-1 3 -1 3 0 0 Z " fill="#21D6B4" transform="translate(130,38)"/>
<path d="M0 0 C1.98 0.66 3.96 1.32 6 2 C5.01 2.66 4.02 3.32 3 4 C2.63702064 5.97747122 2.63702064 5.97747122 2.8125 8.125 C2.874375 9.40375 2.93625 10.6825 3 12 C2.34 12 1.68 12 1 12 C-0.3271261 8.0186217 -0.06915913 4.14954773 0 0 Z " fill="#D39658" transform="translate(144,136)"/>
<path d="M0 0 C0 0.66 0 1.32 0 2 C-5.41176471 6 -5.41176471 6 -8 6 C-8.33 6.66 -8.66 7.32 -9 8 C-9.125 3.25 -9.125 3.25 -8 1 C-5.07175348 0.02391783 -3.04386724 -0.08226668 0 0 Z " fill="#0D6E6D" transform="translate(66,44)"/>
<path d="M0 0 C0.66 0 1.32 0 2 0 C2 0.66 2 1.32 2 2 C2.598125 2.12375 3.19625 2.2475 3.8125 2.375 C6 3 6 3 9 5 C9 6.32 9 7.64 9 9 C5.18063472 7.44396229 2.73955562 5.04395069 0 2 C0 1.34 0 0.68 0 0 Z " fill="#E56D52" transform="translate(93,214)"/>
<path d="M0 0 C2.58926331 2.58926331 2.37398043 4.02705279 2.625 7.625 C2.69976562 8.62789062 2.77453125 9.63078125 2.8515625 10.6640625 C2.90054688 11.43492188 2.94953125 12.20578125 3 13 C2.01 13.495 2.01 13.495 1 14 C-0.79217969 8.83430559 -1.12029814 5.48946087 0 0 Z " fill="#F1CF61" transform="translate(200,102)"/>
<path d="M0 0 C3.875 1.75 3.875 1.75 5 4 C6.64363134 4.72159424 8.31050386 5.39351421 10 6 C9.360625 6.28875 8.72125 6.5775 8.0625 6.875 C5.84793921 7.82823451 5.84793921 7.82823451 5 10 C5 9.01 5 8.02 5 7 C4.34 7 3.68 7 3 7 C0 2.61538462 0 2.61538462 0 0 Z " fill="#93232D" transform="translate(171,173)"/>
<path d="M0 0 C0.66 0.33 1.32 0.66 2 1 C2 5.46034635 0.70762186 8.90170754 -1 13 C-1.33 13 -1.66 13 -2 13 C-2.16682272 8.07872966 -2.24828052 4.49656104 0 0 Z " fill="#0F6383" transform="translate(118,144)"/>
<path d="M0 0 C0.33 0 0.66 0 1 0 C1 4.29 1 8.58 1 13 C-0.32 11.68 -1.64 10.36 -3 9 C-2.34 8.67 -1.68 8.34 -1 8 C-1.33 6.02 -1.66 4.04 -2 2 C-1.34 2 -0.68 2 0 2 C0 1.34 0 0.68 0 0 Z " fill="#0CA0A4" transform="translate(142,136)"/>
<path d="M0 0 C0.66 0 1.32 0 2 0 C2 3.96 2 7.92 2 12 C0.35 12.33 -1.3 12.66 -3 13 C-2.67 12.34 -2.34 11.68 -2 11 C-1.34 11 -0.68 11 0 11 C-0.2784375 9.9171875 -0.2784375 9.9171875 -0.5625 8.8125 C-1.02142086 5.86229447 -0.71778988 3.87115954 0 1 C0 0.67 0 0.34 0 0 Z " fill="#FDCC4B" transform="translate(200,118)"/>
<path d="M0 0 C0.66 0 1.32 0 2 0 C2.36237263 1.62318979 2.71465157 3.2486358 3.0625 4.875 C3.25972656 5.77992187 3.45695312 6.68484375 3.66015625 7.6171875 C4 10 4 10 3 12 C2.01 11.67 1.02 11.34 0 11 C0.020625 9.88625 0.04125 8.7725 0.0625 7.625 C0.26380718 4.16784079 0.26380718 4.16784079 -1 2 C-0.67 1.34 -0.34 0.68 0 0 Z " fill="#03B1C0" transform="translate(49,73)"/>
<path d="M0 0 C4.455 0.99 4.455 0.99 9 2 C7.25 3.5625 7.25 3.5625 5 5 C2.01948452 4.72057667 -0.38065846 3.40321868 -3 2 C-2.01 2 -1.02 2 0 2 C0 1.34 0 0.68 0 0 Z " fill="#BB5B25" transform="translate(169,92)"/>
<path d="M0 0 C-0.33 1.32 -0.66 2.64 -1 4 C-4.3 3.67 -7.6 3.34 -11 3 C-11 2.34 -11 1.68 -11 1 C-3.375 0 -3.375 0 0 0 Z " fill="#EA8850" transform="translate(159,208)"/>
<path d="M0 0 C3.77727089 1.81309003 7.37269822 3.9073259 11 6 C10.67 6.66 10.34 7.32 10 8 C7.03 7.505 7.03 7.505 4 7 C4 6.01 4 5.02 4 4 C3.34 4 2.68 4 2 4 C1.34 2.68 0.68 1.36 0 0 Z " fill="#F87A4B" transform="translate(112,199)"/>
<path d="M0 0 C3.36591866 1.44253657 5.51047079 3.33264727 8 6 C7.67 6.99 7.34 7.98 7 9 C6.01 8.67 5.02 8.34 4 8 C4 7.01 4 6.02 4 5 C3.34 5 2.68 5 2 5 C1.34 3.35 0.68 1.7 0 0 Z " fill="#B43416" transform="translate(190,179)"/>
<path d="M0 0 C0.66 0.33 1.32 0.66 2 1 C1.69096017 2.33917261 1.34976758 3.67088318 1 5 C0.7525 6.03125 0.505 7.0625 0.25 8.125 C-1 11 -1 11 -3.625 12.375 C-4.40875 12.58125 -5.1925 12.7875 -6 13 C-5.73445313 12.48050781 -5.46890625 11.96101562 -5.1953125 11.42578125 C-3.29301903 7.66979306 -1.48040295 3.94774121 0 0 Z " fill="#0C739C" transform="translate(118,152)"/>
<path d="M0 0 C0.66 0 1.32 0 2 0 C3.26237731 2.52475462 3.09856404 4.31200466 3.0625 7.125 C3.05347656 8.03507813 3.04445313 8.94515625 3.03515625 9.8828125 C3.02355469 10.58148438 3.01195312 11.28015625 3 12 C2.34 11.67 1.68 11.34 1 11 C1 10.34 1 9.68 1 9 C0.34 9 -0.32 9 -1 9 C-0.7525 8.1028125 -0.7525 8.1028125 -0.5 7.1875 C0.1114124 4.88655664 0.1114124 4.88655664 0 2 C0 1.34 0 0.68 0 0 Z " fill="#0861B7" transform="translate(49,142)"/>
<path d="M0 0 C-3.36423277 2.96052484 -6.69159287 3.92289822 -11 5 C-11 5.66 -11 6.32 -11 7 C-12.32 7.33 -13.64 7.66 -15 8 C-6.875 -0.58928571 -6.875 -0.58928571 0 0 Z " fill="#FACF54" transform="translate(111,70)"/>
<path d="M0 0 C-2 2 -2 2 -4.625 2.125 C-5.40875 2.08375 -6.1925 2.0425 -7 2 C-7.33 2.66 -7.66 3.32 -8 4 C-8.99 4 -9.98 4 -11 4 C-11.33 4.99 -11.66 5.98 -12 7 C-12.66 5.68 -13.32 4.36 -14 3 C-10.07503936 -0.92496064 -5.24412188 -0.08740203 0 0 Z " fill="#038782" transform="translate(68,43)"/>
<path d="M0 0 C0.66 0 1.32 0 2 0 C1.731875 0.515625 1.46375 1.03125 1.1875 1.5625 C-0.12273552 4.15837791 -0.12273552 4.15837791 -1.375 7.625 C-3 11 -3 11 -5.1875 12.4375 C-6.0846875 12.7159375 -6.0846875 12.7159375 -7 13 C-5.65846062 7.99971686 -3.51629997 3.80932497 0 0 Z " fill="#23B0A9" transform="translate(35,34)"/>
<path d="M0 0 C3 1 3 1 4.1875 3.0625 C4.455625 3.701875 4.72375 4.34125 5 5 C4.01 5.66 3.02 6.32 2 7 C0.62437146 5.71034824 -0.70766393 4.37310707 -2 3 C-2 2.34 -2 1.68 -2 1 C-1.34 0.67 -0.68 0.34 0 0 Z " fill="#054BAC" transform="translate(62,165)"/>
<path d="M0 0 C0.33 0.66 0.66 1.32 1 2 C-3.22949995 4.41685712 -6.12335991 5.34833144 -11 5 C-9 2 -9 2 -6.8359375 1.26953125 C-6.02382812 1.11871094 -5.21171875 0.96789062 -4.375 0.8125 C-3.55773437 0.65394531 -2.74046875 0.49539062 -1.8984375 0.33203125 C-1.27195313 0.22246094 -0.64546875 0.11289063 0 0 Z " fill="#E59539" transform="translate(184,103)"/>
<path d="M0 0 C0.33 1.32 0.66 2.64 1 4 C1.66 4 2.32 4 3 4 C3.33 4.99 3.66 5.98 4 7 C0.00499382 5.6302836 -2.80009492 3.74277578 -6 1 C-3 0 -3 0 0 0 Z " fill="#1486AA" transform="translate(45,102)"/>
<path d="M0 0 C4.86896303 0.59619955 9.32790951 1.56976822 14 3 C11.11788698 3.96070434 9.30149956 4.10581883 6.3125 4.0625 C5.10013672 4.04896484 5.10013672 4.04896484 3.86328125 4.03515625 C2.94095703 4.01775391 2.94095703 4.01775391 2 4 C1.34 2.68 0.68 1.36 0 0 Z " fill="#02D6B0" transform="translate(114,57)"/>
<path d="M0 0 C3.76827207 1.70712952 5.49917376 3.69245562 8 7 C8.98230498 8.0173873 9.97469597 9.02596117 11 10 C10.67 10.99 10.34 11.98 10 13 C6.54898478 8.75259665 3.26720791 4.38894929 0 0 Z " fill="#2AC0AB" transform="translate(104,49)"/>
<path d="M0 0 C3.71888239 0.50712033 6.73454239 1.11608215 10 3 C9.67 3.66 9.34 4.32 9 5 C6.75 5.3125 6.75 5.3125 4 5 C1.6875 2.5 1.6875 2.5 0 0 Z " fill="#A21E11" transform="translate(172,173)"/>
<path d="M0 0 C0.33 0.99 0.66 1.98 1 3 C3.31 3.33 5.62 3.66 8 4 C6.25 5.125 6.25 5.125 4 6 C2.0625 5.25 2.0625 5.25 0 4 C-1.66140763 3.32033324 -3.32700041 2.65061095 -5 2 C-5 1.67 -5 1.34 -5 1 C-3.35 0.67 -1.7 0.34 0 0 Z " fill="#F9B44A" transform="translate(150,138)"/>
<path d="M0 0 C1.79068573 2.6860286 2.66055791 4.6626589 3.625 7.6875 C3.88539062 8.49574219 4.14578125 9.30398437 4.4140625 10.13671875 C4.60742188 10.75160156 4.80078125 11.36648437 5 12 C2 11 2 11 0 8 C-0.25760279 5.30547479 -0.08900053 2.71451625 0 0 Z " fill="#DF8564" transform="translate(107,185)"/>
<path d="M0 0 C2.97 1.65 5.94 3.3 9 5 C9 5.66 9 6.32 9 7 C7.35 7 5.7 7 4 7 C3.67 6.01 3.34 5.02 3 4 C2.01 3.67 1.02 3.34 0 3 C0 2.01 0 1.02 0 0 Z " fill="#1DA9A8" transform="translate(124,109)"/>
<path d="M0 0 C3.33727786 1.17255709 5.77437487 2.18868404 8 5 C8 5.66 8 6.32 8 7 C4.78448712 6.65548076 3.97940123 5.97711248 1.75 3.5 C0 1 0 1 0 0 Z " fill="#167FAE" transform="translate(32,95)"/>
<path d="M0 0 C5.26053037 -0.31563182 8.44573816 0.33409063 13 3 C10.41150579 4.2942471 9.29019914 3.81710662 6.5 3.1875 C5.7059375 3.01605469 4.911875 2.84460938 4.09375 2.66796875 C2 2 2 2 0 0 Z " fill="#FCC951" transform="translate(156,88)"/>
<path d="M0 0 C0.66 0.33 1.32 0.66 2 1 C0.73046875 2.46484375 -0.5390625 3.9296875 -1.80859375 5.39453125 C-3.20871231 7.10712971 -3.20871231 7.10712971 -4 10 C-4.99 9.67 -5.98 9.34 -7 9 C-7 6 -7 6 -5.46875 4.39453125 C-4.49421875 3.61142578 -4.49421875 3.61142578 -3.5 2.8125 C-2.8503125 2.28269531 -2.200625 1.75289062 -1.53125 1.20703125 C-1.0259375 0.80871094 -0.520625 0.41039062 0 0 Z " fill="#0299A4" transform="translate(33,52)"/>
<path d="M0 0 C0.33 0 0.66 0 1 0 C1.33 3.63 1.66 7.26 2 11 C1.01 11 0.02 11 -1 11 C-2.23825459 7.28523623 -1.70587257 4.81171187 -1 1 C-0.67 0.67 -0.34 0.34 0 0 Z " fill="#07287B" transform="translate(78,184)"/>
<path d="M0 0 C0.33 0 0.66 0 1 0 C1.103125 1.051875 1.20625 2.10375 1.3125 3.1875 C1.97733415 6.87430754 2.88566296 8.96638599 5 12 C4.01 12.33 3.02 12.66 2 13 C-0.20914 9.68629 -0.22481553 8.6553979 -0.125 4.8125 C-0.10695313 3.91144531 -0.08890625 3.01039063 -0.0703125 2.08203125 C-0.04710938 1.39496094 -0.02390625 0.70789063 0 0 Z " fill="#365D99" transform="translate(109,180)"/>
<path d="M0 0 C-0.33 0.99 -0.66 1.98 -1 3 C-1.66 3 -2.32 3 -3 3 C-3 2.34 -3 1.68 -3 1 C-3.99 1.33 -4.98 1.66 -6 2 C-6.99 1.01 -7.98 0.02 -9 -1 C-5.23375329 -2.25541557 -3.62811066 -1.37061958 0 0 Z " fill="#B62929" transform="translate(194,184)"/>
<path d="M0 0 C0.99 0.33 1.98 0.66 3 1 C3.33 2.98 3.66 4.96 4 7 C3.01 6.67 2.02 6.34 1 6 C0.67 6.99 0.34 7.98 0 9 C0 6.03 0 3.06 0 0 Z " fill="#F87D44" transform="translate(81,135)"/>
<path d="M0 0 C3.94727588 -0.17942163 6.5980513 -0.09350689 10 2 C10 2.99 10 3.98 10 5 C10.99 5.33 11.98 5.66 13 6 C7.76124715 5.25160674 4.3371124 2.89140827 0 0 Z " fill="#1E8D9C" transform="translate(100,125)"/>
<path d="M0 0 C1.48206495 0.254496 2.96068615 0.52911762 4.4375 0.8125 C5.67306641 1.03873047 5.67306641 1.03873047 6.93359375 1.26953125 C7.95646484 1.63111328 7.95646484 1.63111328 9 2 C9.33 2.99 9.66 3.98 10 5 C6.44219804 4.39009109 3.3171411 3.4216319 0 2 C0 1.34 0 0.68 0 0 Z " fill="#F4E15D" transform="translate(165,67)"/>
<path d="M0 0 C0.99 0.66 1.98 1.32 3 2 C2.67 3.32 2.34 4.64 2 6 C-0.97 5.505 -0.97 5.505 -4 5 C-3.34 4.67 -2.68 4.34 -2 4 C-0.86649466 1.98330173 -0.86649466 1.98330173 0 0 Z " fill="#0B40A3" transform="translate(68,171)"/>
<path d="M0 0 C3.465 1.485 3.465 1.485 7 3 C7 3.66 7 4.32 7 5 C6.21625 4.938125 5.4325 4.87625 4.625 4.8125 C3.325625 4.9053125 3.325625 4.9053125 2 5 C1.34 5.99 0.68 6.98 0 8 C0 5.36 0 2.72 0 0 Z " fill="#DA6740" transform="translate(80,131)"/>
<path d="M0 0 C1.67542976 0.28604898 3.34385343 0.61781233 5 1 C4.01 1.66 3.02 2.32 2 3 C1.21011855 4.95385067 1.21011855 4.95385067 0.8125 7.125 C0.544375 8.40375 0.27625 9.6825 0 11 C-0.33 11 -0.66 11 -1 11 C-1.02688151 9.35425434 -1.04634123 7.70838587 -1.0625 6.0625 C-1.07410156 5.14597656 -1.08570312 4.22945313 -1.09765625 3.28515625 C-1 1 -1 1 0 0 Z " fill="#185793" transform="translate(25,121)"/>
<path d="M0 0 C1.04005702 3.38018531 1.08004482 6.4780279 1 10 C0.01 10.495 0.01 10.495 -1 11 C-1.66 10.34 -2.32 9.68 -3 9 C-2.53846154 2.53846154 -2.53846154 2.53846154 0 0 Z " fill="#0A91B4" transform="translate(27,66)"/>
<path d="M0 0 C2.97 0.33 5.94 0.66 9 1 C9.33 1.99 9.66 2.98 10 4 C5.78087253 3.5205537 3.20336822 2.83374881 0 0 Z " fill="#1791AB" transform="translate(90,121)"/>
<path d="M0 0 C0.66 0.33 1.32 0.66 2 1 C-1.32307692 6.78461538 -1.32307692 6.78461538 -4.75 7.875 C-5.4925 7.91625 -6.235 7.9575 -7 8 C-6.02133662 6.85373678 -5.04205413 5.70800212 -4.0625 4.5625 C-3.51722656 3.92441406 -2.97195312 3.28632812 -2.41015625 2.62890625 C-1.63204305 1.73008851 -0.84063472 0.84063472 0 0 Z " fill="#E7BE62" transform="translate(97,74)"/>
<path d="M0 0 C2.475 0.99 2.475 0.99 5 2 C4.67 2.99 4.34 3.98 4 5 C2.02 5.33 0.04 5.66 -2 6 C-1.34 4.02 -0.68 2.04 0 0 Z " fill="#FB9A3B" transform="translate(152,160)"/>
<path d="M0 0 C2.875 -0.125 2.875 -0.125 6 0 C6.66 0.66 7.32 1.32 8 2 C6.02 2 4.04 2 2 2 C2 2.99 2 3.98 2 5 C1.34 5 0.68 5 0 5 C0 3.35 0 1.7 0 0 Z " fill="#743A46" transform="translate(80,121)"/>
<path d="M0 0 C0.99 0.33 1.98 0.66 3 1 C2.67 3.64 2.34 6.28 2 9 C1.34 8.67 0.68 8.34 0 8 C-0.6875 4.5 -0.6875 4.5 -1 1 C-0.67 0.67 -0.34 0.34 0 0 Z " fill="#DB9F5C" transform="translate(175,107)"/>
<path d="M0 0 C4.05281712 1.22527029 7.44360764 2.69880494 11 5 C9.1875 5.625 9.1875 5.625 7 6 C6.01 5.34 5.02 4.68 4 4 C4 3.34 4 2.68 4 2 C2.68 2 1.36 2 0 2 C0 1.34 0 0.68 0 0 Z " fill="#C7771E" transform="translate(178,94)"/>
<path d="M0 0 C2.97 0.495 2.97 0.495 6 1 C6 1.99 6 2.98 6 4 C4.35 3.67 2.7 3.34 1 3 C0.67 2.01 0.34 1.02 0 0 Z " fill="#A31E15" transform="translate(183,177)"/>
<path d="M0 0 C0.33 0 0.66 0 1 0 C1.66 3.63 2.32 7.26 3 11 C2.01 10.67 1.02 10.34 0 10 C0 6.7 0 3.4 0 0 Z " fill="#D35638" transform="translate(145,152)"/>
<path d="M0 0 C0.99 0.33 1.98 0.66 3 1 C3 1.66 3 2.32 3 3 C4.65 3.33 6.3 3.66 8 4 C8 4.66 8 5.32 8 6 C4.65750371 5.40312566 2.53563658 4.26396123 0 2 C0 1.34 0 0.68 0 0 Z " fill="#EFCA7C" transform="translate(182,124)"/>
<path d="M0 0 C1.65 1.65 3.3 3.3 5 5 C4.67 5.99 4.34 6.98 4 8 C3.34 6.68 2.68 5.36 2 4 C1.01 4.33 0.02 4.66 -1 5 C-0.67 3.35 -0.34 1.7 0 0 Z " fill="#EBB02F" transform="translate(194,104)"/>
<path d="M0 0 C2.31 0.33 4.62 0.66 7 1 C6.67 2.65 6.34 4.3 6 6 C3.96166576 4.7260411 1.96147874 3.38938077 0 2 C0 1.34 0 0.68 0 0 Z " fill="#AD614A" transform="translate(164,94)"/>
<path d="M0 0 C1.32 0.33 2.64 0.66 4 1 C4.33 2.65 4.66 4.3 5 6 C3.68 6.33 2.36 6.66 1 7 C0.67 4.69 0.34 2.38 0 0 Z " fill="#0E2F77" transform="translate(74,170)"/>
<path d="M0 0 C-2.1875 2.0625 -2.1875 2.0625 -5 4 C-7.8125 3.75 -7.8125 3.75 -10 3 C-6.68152292 -0.06320961 -4.44849969 -0.3033068 0 0 Z " fill="#00928E" transform="translate(54,45)"/>
<path d="M0 0 C1.670625 0.061875 1.670625 0.061875 3.375 0.125 C3.045 1.115 2.715 2.105 2.375 3.125 C-0.265 2.795 -2.905 2.465 -5.625 2.125 C-3.625 0.125 -3.625 0.125 0 0 Z " fill="#1EC9B1" transform="translate(61.625,18.875)"/>
<path d="M0 0 C1.32 0 2.64 0 4 0 C4 2.64 4 5.28 4 8 C2.22293791 5.33440687 1.12451727 2.9719385 0 0 Z " fill="#12455A" transform="translate(113,133)"/>
<path d="M0 0 C-0.33 0.66 -0.66 1.32 -1 2 C-3.31 2 -5.62 2 -8 2 C-8 1.34 -8 0.68 -8 0 C-5.13822943 -1.43088528 -3.06624227 -0.59991697 0 0 Z " fill="#C4642F" transform="translate(182,96)"/>
<path d="M0 0 C1.46132217 2.92264434 2.34099246 4.92463146 3 8 C1.02 8.99 1.02 8.99 -1 10 C-0.67 6.7 -0.34 3.4 0 0 Z " fill="#11AEB7" transform="translate(27,48)"/>
<path d="M0 0 C0.66 0.33 1.32 0.66 2 1 C0 4 0 4 -3 6 C-3 4.68 -3 3.36 -3 2 C-2.01 1.34 -1.02 0.68 0 0 Z " fill="#05D3B6" transform="translate(47,26)"/>
<path d="" fill="#FFFFFF" transform="translate(0,0)"/>
<path d="" fill="#FFFFFF" transform="translate(0,0)"/>
<path d="" fill="#FFFFFF" transform="translate(0,0)"/>
<path d="" fill="#FFFFFF" transform="translate(0,0)"/>
<path d="" fill="#FFFFFF" transform="translate(0,0)"/>
<path d="" fill="#FFFFFF" transform="translate(0,0)"/>
<path d="" fill="#FFFFFF" transform="translate(0,0)"/>
<path d="" fill="#FFFFFF" transform="translate(0,0)"/>
<path d="" fill="#FFFFFF" transform="translate(0,0)"/>
<path d="" fill="#FFFFFF" transform="translate(0,0)"/>
<path d="" fill="#FFFFFF" transform="translate(0,0)"/>
<path d="" fill="#FFFFFF" transform="translate(0,0)"/>
<path d="" fill="#FFFFFF" transform="translate(0,0)"/>
<path d="" fill="#FFFFFF" transform="translate(0,0)"/>
<path d="" fill="#FFFFFF" transform="translate(0,0)"/>
<path d="" fill="#FFFFFF" transform="translate(0,0)"/>
<path d="" fill="#FFFFFF" transform="translate(0,0)"/>
<path d="" fill="#FFFFFF" transform="translate(0,0)"/>
<path d="" fill="#FFFFFF" transform="translate(0,0)"/>
<path d="" fill="#FFFFFF" transform="translate(0,0)"/>
<path d="" fill="#FFFFFF" transform="translate(0,0)"/>
<path d="" fill="#FFFFFF" transform="translate(0,0)"/>
<path d="" fill="#FFFFFF" transform="translate(0,0)"/>
<path d="" fill="#FFFFFF" transform="translate(0,0)"/>
<path d="" fill="#FFFFFF" transform="translate(0,0)"/>
<path d="" fill="#FFFFFF" transform="translate(0,0)"/>
<path d="" fill="#FFFFFF" transform="translate(0,0)"/>
<path d="" fill="#FFFFFF" transform="translate(0,0)"/>
<path d="" fill="#FFFFFF" transform="translate(0,0)"/>
<path d="" fill="#FFFFFF" transform="translate(0,0)"/>
<path d="" fill="#FFFFFF" transform="translate(0,0)"/>
<path d="" fill="#FFFFFF" transform="translate(0,0)"/>
<path d="" fill="#FFFFFF" transform="translate(0,0)"/>
<path d="" fill="#FFFFFF" transform="translate(0,0)"/>
<path d="" fill="#FFFFFF" transform="translate(0,0)"/>
<path d="" fill="#FFFFFF" transform="translate(0,0)"/>
<path d="" fill="#FFFFFF" transform="translate(0,0)"/>
<path d="" fill="#FFFFFF" transform="translate(0,0)"/>
<path d="" fill="#FFFFFF" transform="translate(0,0)"/>
<path d="" fill="#FFFFFF" transform="translate(0,0)"/>
<path d="" fill="#FFFFFF" transform="translate(0,0)"/>
<path d="" fill="#FFFFFF" transform="translate(0,0)"/>
<path d="" fill="#FFFFFF" transform="translate(0,0)"/>
<path d="" fill="#FFFFFF" transform="translate(0,0)"/>
<path d="" fill="#FFFFFF" transform="translate(0,0)"/>
<path d="" fill="#FFFFFF" transform="translate(0,0)"/>
<path d="" fill="#FFFFFF" transform="translate(0,0)"/>
<path d="" fill="#FFFFFF" transform="translate(0,0)"/>
<path d="" fill="#FFFFFF" transform="translate(0,0)"/>
</svg>
